<?xml version="1.0" standalone="no"?>
<!DOCTYPE svg PUBLIC "-//W3C//DTD SVG 1.1//EN" "http://www.w3.org/Graphics/SVG/1.1/DTD/svg11.dtd" >
<!--
2013-9-30: Created.
-->
<svg>
<metadata>
Created by iconfont
</metadata>
<defs>

<font id="iconfont" horiz-adv-x="1024" >
  <font-face
    font-family="iconfont"
    font-weight="500"
    font-stretch="normal"
    units-per-em="1024"
    ascent="896"
    descent="-128"
  />
    <missing-glyph />
    
    <glyph glyph-name="x" unicode="x" horiz-adv-x="1001"
d="M281 543q-27 -1 -53 -1h-83q-18 0 -36.5 -6t-32.5 -18.5t-23 -32t-9 -45.5v-76h912v41q0 16 -0.5 30t-0.5 18q0 13 -5 29t-17 29.5t-31.5 22.5t-49.5 9h-133v-97h-438v97zM955 310v-52q0 -23 0.5 -52t0.5 -58t-10.5 -47.5t-26 -30t-33 -16t-31.5 -4.5q-14 -1 -29.5 -0.5
t-29.5 0.5h-32l-45 128h-439l-44 -128h-29h-34q-20 0 -45 1q-25 0 -41 9.5t-25.5 23t-13.5 29.5t-4 30v167h911zM163 247q-12 0 -21 -8.5t-9 -21.5t9 -21.5t21 -8.5q13 0 22 8.5t9 21.5t-9 21.5t-22 8.5zM316 123q-8 -26 -14 -48q-5 -19 -10.5 -37t-7.5 -25t-3 -15t1 -14.5
t9.5 -10.5t21.5 -4h37h67h81h80h64h36q23 0 34 12t2 38q-5 13 -9.5 30.5t-9.5 34.5q-5 19 -11 39h-368zM336 498v228q0 11 2.5 23t10 21.5t20.5 15.5t34 6h188q31 0 51.5 -14.5t20.5 -52.5v-227h-327z" />
    

    
    <glyph glyph-name="daohangxianlu" unicode="&#58892;" d="M748.59184647 286.50531577000004L748.59184647 484.22901821c0 72.79599381-60.51825713 131.80908108-135.17537785 131.80908108-74.65781594 0-135.1962347-59.0137825-135.1962347-131.80908108l0-197.72370243c0-36.3979969-30.25773811-65.8840313-67.58595086-65.88403129-37.3393364 0-67.59776974 29.48533916-67.59776974 65.88403129L343.03651333 484.22901821l67.59776973 0L309.24145222 648.9905433700001 207.85070705 484.22901821l67.58803655 0 0-197.72370244c0-72.79529858 60.52868558-131.80908108 135.19553946-131.80908107 74.65573025 0 135.17537785 59.0137825 135.17537786 131.80908107L545.80966092 484.22901821c0 36.3979969 30.27789974 65.90419292 67.60750292 65.90419292 37.3275175 0 67.58803654-29.50689126 67.58803655-65.90419292l0-197.72370244-67.58803655 1e-8L714.80721379 121.74448586000005l101.39144038 164.76082991L748.59184647 286.50531577000004z"  horiz-adv-x="1024" />

    
    <glyph glyph-name="sousuo" unicode="&#59075;" d="M806.30256784 154.26099264000004L683.79532648 276.76823402c-2.12261975 2.12189555-4.76521253 3.16184164-7.23399818 4.76448833 71.17402553 100.62999129 62.33665645 240.55126012-27.76713968 330.65505624-100.67344308 100.71617067-263.94352912 100.71617067-364.66042399 0-100.71617067-100.67344308-100.71617067-263.89935315 0-364.66042399 91.09956622-91.10029042 232.92764426-98.89771342 333.81689787-25.21217466 1.60264671-2.2949785 2.599141-4.80794013 4.59140539-6.84365629l122.50651716-122.50651719c16.98095798-16.9375062 44.35920417-16.9375062 61.25398279 0C823.19734645 109.94524027 823.19734645 137.36693822999996 806.30256784 154.26099264000004L806.30256784 154.26099264000004zM597.20098627 299.20673632c-72.16979562-72.16907143-189.1745925-72.16907143-261.38711572 0-72.16979562 72.16907143-72.16979562 189.21732008 0 261.38783992 72.16907143 72.16907143 189.1745925 72.16907143 261.38711572 1e-8C669.41350949 488.38132882 669.41350949 371.37653197 597.20098627 299.20673632L597.20098627 299.20673632z"  horiz-adv-x="1029" />

    
    <glyph glyph-name="suoxiao" unicode="&#58937;" d="M512.37095603 687.53094846c-167.51140039 0-303.30501673-130.25889523-303.30501674-297.77029624 0-167.5101795 135.79361633-308.83851637 303.30501674-308.83851635 167.51078994 0 303.30440629 135.79361633 303.30440629 303.30440629S679.88174598 687.53094846 512.37095603 687.53094846zM512.09128854 144.17268572c-133.14349625 0-241.08154164 107.93865642-241.08154164 241.08215209 0 133.14410669 107.93804539 241.08215209 241.08154164 241.08215207 133.14960247 0 241.08642697-107.93804539 241.08642696-241.08215207C753.17832596 252.11134215000004 645.24089101 144.17268572 512.09128854 144.17268572zM636.23719973 420.27550232L388.14260983 420.27550232c-19.85880262 0-35.96164042-15.8017988-35.9616404-35.66548615 0-19.85513876 16.1028378-35.65693755 35.9616404-35.65693754l249.63275847 0c19.85819216 0 35.96164042 15.8017988 35.9616404 35.65693754C673.7370087 404.47370413 656.0996662 420.27550232 636.23719973 420.27550232z"  horiz-adv-x="1024" />

    
    <glyph glyph-name="woshou" unicode="&#58927;" d="M111.17659 545.356081c33.55421-11.233855 66.788126-23.542182 100.773148-33.270754 19.101033-5.456269 38.07006-0.545422 55.307653 10.369162 35.057447 22.205745 71.264067 42.285059 110.462834 56.416917 33.647331 12.139481 65.563228 9.108448 95.446839-11.008728 3.76372-2.540869 6.982018-5.907547 11.140735-9.484002-16.897855-9.370415-32.951483-17.933441-48.663326-27.117614-18.913768-11.04659-37.82549-22.13002-56.174394-34.042327-33.571606-21.830191-46.594201-59.486836-33.70259-95.277994 12.023848-33.385365 48.325635-57.508785 80.317257-52.315506 10.650571 1.749854 21.227464 5.41943 31.182186 9.746992 25.574469 11.085476 50.734498 23.054065 76.101235 34.646078 24.538883 11.215436 44.034912 7.603165 63.304791-11.630898 49.304939-49.210795 98.572016-98.44001 147.912771-147.629315 14.904455-14.866592 15.807011-36.884049 1.88186-51.148937-14.151301-14.488992-36.167734-13.736862-51.712779 1.655709-15.919575 15.808034-31.803333 31.652907-48.063669 47.122227-3.234671 3.125177-6.735401 9.972119-12.417821 4.780887-1.204431-1.130753 1.807159-8.960069 4.6673-12.085246 14.903431-16.408715 30.333866-32.327266 45.688575-48.321542 18.405185-19.120476 14.56574-47.723931-7.940856-58.604746-14.301727-6.924713-30.259164-3.160993-42.716894 9.29776-19.572778 19.534915-39.369659 38.877449-59.202357 58.111512-2.559289 2.485611-6.061043 4.064572-10.086729 6.700609-1.730411-8.882298 3.162016-13.060457 6.925736-17.161868 14.678304-15.921621 29.65746-31.540344 44.63764-47.161113 6.735401-6.999414 11.365862-14.790868 11.627828-24.799826 0.376577-15.09479-7.526417-27.851325-21.00029-33.612539-13.700023-5.871731-28.717042-2.482541-39.405475 8.544607-16.936741 17.349133-34.023908 34.589796-51.110051 51.825342-2.749624 2.750647-5.646604 5.497201-8.921183 7.52744-1.807159 1.12973-4.516874 0.75213-6.811126 1.052982 0.035816-2.367931-0.677429-5.118578 0.261966-7.03523 1.469468-2.973728 3.87833-5.569856 6.211469-8.019651 13.284561-13.960966 26.984584-27.586288 40.007179-41.851177 11.441587-12.455683 12.082176-30.785144 2.447748-43.920302-11.93175-16.259312-35.115776-19.23304-50.433646-5.948479-6.848988 5.985318-12.94687 12.873192-19.043728 19.648502-1.242294 1.390673-1.411139 4.251837-1.204431 6.323009 3.669576 38.238906-15.732309 70.305229-50.884924 84.644819-2.823302 1.127683-5.684466 4.402263-6.718005 7.340175-8.243755 23.484877-23.429619 40.195467-46.482661 49.904597-2.821255 1.204431-5.664 4.403287-6.792707 7.300266-8.448416 21.905916-23.165606 37.335327-44.862767 46.408983-2.87856 1.204431-5.985318 4.251837-7.0383 7.148817-14.865569 41.476647-56.567343 59.543118-98.476849 49.567929-29.449729-7.000438-49.867758-24.915459-61.517075-52.842509-0.300852-0.712221-0.677429-1.391696-1.090844-2.068102-0.282433-0.414439-0.659009-0.793062-1.39272-1.583055-14.000875 4.854565-28.227901 9.785877-42.436508 14.754029C111.17659 360.616566 111.17659 452.995533 111.17659 545.356081zM912.822386 276.084311c-27.964912-5.082762-55.778374-10.804067-83.854826-14.942317-19.684318-2.937912-36.732599 3.800559-51.110051 18.064424-53.896514 53.464679-108.09388 106.625436-161.989371 160.069649-16.409738 16.259312-35.679617 20.134573-55.927777 10.745738-30.900777-14.359033-60.971653-30.599925-91.382267-46.087665-9.277294-4.722558-18.423605-9.710153-27.738761-14.395872-22.582321-11.365862-49.171909-2.860141-61.047378 19.438725-11.592013 21.736047-3.76372 48.702212 17.935488 60.953234 63.530942 35.868929 127.117143 71.64269 190.685947 107.433848 0.226151 0.132006 0.451278 0.245593 0.677429 0.397043 27.174919 17.744129 52.616358 14.320147 76.740802-6.117324 27.061332-22.938432 54.235229-45.746904 81.22186-68.762083 13.247722-11.30958 28.225855-14.960737 45.087894-11.291161 37.938054 8.262174 75.838246 16.597003 113.740484 24.839735 2.258437 0.488117 4.628414 0.508583 6.961552 0.753153C912.822386 436.811946 912.822386 356.437383 912.822386 276.084311zM349.492324 75.931758c-7.960299-2.108011-14.622022-4.328585-21.434172-5.569856-10.990309-2.033309-21.979594-2.371-31.182186 5.606695-10.19827 8.846482-14.000875 19.798928-9.765411 33.006741 2.032286 6.323009 4.195555 12.644995 6.67912 20.09978-8.147564-2.070148-15.054881-4.064572-22.073738-5.496178-25.178449-5.192256-44.448328 16.523325-36.357046 40.838104 1.88186 5.681396 3.953032 11.251252 6.473435 18.403139-4.949732-1.24127-8.882298-1.919722-12.588713-3.237741-35.679617-12.495592-53.595662 17.161868-47.611367 43.35646 5.928013 25.931602 27.456329 48.402383 52.127218 51.940976 28.67918 4.101411 52.033074-19.49603 47.458895-47.948035-0.319272-2.034333-0.656963-4.065596-1.183965-7.267521 15.901155 2.221598 30.655184 0.980327 42.358737-10.688433 11.93175-11.889795 12.571317-26.683732 9.878998-42.943045 16.936741 1.583055 32.556487 0.414439 44.110637-13.247722 11.329023-13.43601 11.724019-28.791743 6.907317-45.274136 6.228865 0.601704 11.592013 1.692548 16.936741 1.542122 28.453029-0.75213 46.838771-26.496467 39.311331-54.763255-8.015557-30.03199-50.54621-51.751664-79.468936-40.533159-16.842597 6.510274-24.785499 22.50455-19.345604 39.857776C342.98205 60.76329 346.198302 67.615349 349.492324 75.931758z"  horiz-adv-x="1024" />

    
    <glyph glyph-name="mianxingtubiao1qifei" unicode="&#59053;" d="M792.49743644 452.81835938l-473.57116698-126.89209001c-13.49670411-3.60900903-27.07580582 0.79101586-35.38146989 10.10192903l-66.00036621 38.10058562c-11.83227547 6.82250977-15.86975098 21.93420378-9.04724122 33.76647925s21.95068359 15.86975098 33.76647926 9.04724121l70.41687018-40.67138664 152.92968783 60.69396965L281.28710921 543.3731691099999c-16.74316373 9.67346183-22.9559327 30.28930657-13.84277368 46.06018083 9.09667992 15.75439446 30.05859352 20.69824236 46.80175799 11.0247805l289.75891088-108.55041471 99.20654264 39.36950668c53.32763688 14.28771997 109.83581558-19.9731443 114.54895044-37.54028353C822.49011214 476.13684074 811.15222168 457.81164527 792.49743644 452.81835938zM265.03832975 228.49951189l428.46679657 0c13.64501953 0 24.71923805-11.07421852 24.71923803-24.71923805 0-2.93334968-0.74157715-5.63598633-1.68090843-8.23974626 0.93933129-2.60375993 1.68090844-5.32287565 1.68090843-8.23974626 0-13.64501953-11.07421852-24.71923805-24.71923803-24.71923802l-428.46679657 0c-13.66149935 0-24.71923805 11.07421852-24.71923803 24.71923802 0 2.91686988 0.72509733 5.63598633 1.66442862 8.23974626-0.93933129 2.60375993-1.66442863 5.30639656-1.66442862 8.23974626C240.30261263 217.44177246000004 251.37683113 228.49951189 265.03832975 228.49951189z"  horiz-adv-x="1024" />

    
    <glyph glyph-name="jichang" unicode="&#58883;" d="M628.46567901 490.79256937l10.32479138 20.3959968 64.84866826-16.49423824c5.97213568-1.52846681 9.57167417-7.59231021 8.0571031-13.56444589-1.51735062-5.95893517-7.58188925-9.57167417-13.55402493-8.0571031L628.46567901 490.79256937 628.46567901 490.79256937zM697.83930219 430.56890242l-85.33845707 21.70005687-25.08838912 6.38273741-194.19167784 49.38544991-37.86498011 9.62308646-50.94101164 12.96000711c-22.56919851 5.74842348-97.51825137 5.14051126-103.25347503-17.42868723l0 0c-5.74842348-22.57197737 59.8130652-58.9057118 82.39546421-64.66455692l81.30469472-20.67390015c-4.00944566 7.58188925-14.96368778 28.20159757-19.38026105 37.3355751l22.74219295-4.58678955C413.70570447 373.97186956999997 469.23628453 308.12136134 537.21136107 240.39778712999998c28.58232482-7.62149012 34.96228334-9.58487469 63.5578087-17.19385952l-14.87128484 148.43494631 136.40938819-34.68715954c48.5163076-12.33889369 90.07184004 121.3810883 99.78663492 138.1129338l-57.65028515 14.65799428L697.83930219 430.56890242 697.83930219 430.56890242zM593.13656346 474.41713442l-181.393549 46.14301586 137.45152498 27.27826477 72.06303006-19.38095629L593.13656346 474.41713442 593.13656346 474.41713442zM629.73222185 265.90719893000005l-2.21419234 23.57103849 134.49741592-34.21125047c5.97283024-1.50137122 9.58487469-7.57910969 8.07030361-13.55194059-1.53055115-5.95893517-7.59508909-9.57167417-13.56722477-8.05710311L629.73222185 265.90719893000005 629.73222185 265.90719893000005zM634.71641193 212.89581017l-2.21419235 23.57381804 129.58061684-32.96138155c5.97213568-1.50137122 9.58487469-7.56590986 8.05432424-13.55194061-1.51457175-5.95893517-7.57910969-9.57167417-13.55124538-8.05432422L634.71641193 212.89581017 634.71641193 212.89581017zM622.74435043 340.18442135l139.15229102-35.39928544c5.97213568-1.50137122 9.58487469-7.57910969 8.07030362-13.55124537-1.51735062-5.95893517-7.59508909-9.57167417-13.55402493-8.0571031l-131.45159848 33.4345111L622.74435043 340.18442135z"  horiz-adv-x="1024" />

    
    <glyph glyph-name="guanlian" unicode="&#59001;" d="M789.64419731 468.01810192l-309.33937525-305.52037061c-49.64706022-49.64706022-133.66516213-49.64706022-187.13122699 0-49.64706022 49.64706022-49.64706022 133.66516213 0 183.31222237l278.78733817 274.96833354c34.3710417 34.3710417 91.65611118 34.3710417 126.02715289 0 34.3710417-34.3710417 34.3710417-87.83710655 0-122.20814825l-278.78733819-274.96833353c-15.27601854-15.27601854-45.8280556-15.27601854-61.10407411 0-15.27601854 15.27601854-15.27601854 45.8280556 0 61.10407411l248.23530111 244.41629649L571.96093324 559.67421309 323.72563213 315.25791661000005c-34.3710417-34.3710417-34.3710417-87.83710655 0-122.20814823s91.65611118-34.3710417 126.02715287 0l278.78733819 274.96833354c49.64706022 49.64706022 49.64706022 133.66516213 0 183.31222236C675.07405833 700.9773845 591.05595643 700.9773845 541.40889619 651.33032428L243.52653485 361.0859722l0 0c-53.46606486-68.74208339-49.64706022-168.03620384 15.27601853-229.14027795C323.72563213 67.02261550000003 423.01975257 63.203610860000026 491.76183597 116.66967571999999l0 0L820.19623437 437.46606486 789.64419731 468.01810192 789.64419731 468.01810192 789.64419731 468.01810192z"  horiz-adv-x="1029" />

    
    <glyph glyph-name="xiaoxi" unicode="&#58891;" d="M726.92254736 596.28941665l-0.99002926 1.15607686C671.17103465 652.37510754 595.6126791 686.34110866 512.15145731 686.34110866c-83.47511753 0-159.00290341-33.96530589-214.10064936-88.89561582l0.33556796 0C243.60891306 542.6992942300001 209.6436065 467.14093868 209.6436065 384c0-83.45983269 33.96530589-159.17103465 88.40720078-214.10064936l0.33556796 0.33487341 0-0.33487341c54.76287255-54.10771671 130.29065909-88.24045928 213.76577594-88.2404593l224.66652211 0 0.6704407 0c12.84954043 0 23.07984524 10.38315121 23.07984524 23.26256611L760.56895992 212.28511838999998c16.48798593 23.75028593 29.70296879 49.98085685 38.76121733 78.02404958 9.72799469 29.52024724 15.02621557 61.03444942 15.02621557 93.69083203C814.3563935 466.48578282 781.03026406 541.69467469 726.92254736 596.28941665zM662.58383131 295.59210399999995L361.38490444 295.59210399999995c-7.91676198 0-14.0070064 6.27296597-14.00700639 14.18972796 0 7.24701583 6.09093898 13.68602874 14.0070064 13.68602873l301.19892686 0c7.93204682 0 13.85415999-6.43901291 13.85416-13.68602873C676.4379913 301.86506998000004 670.51587813 295.59210399999995 662.58383131 295.59210399999995zM662.58383131 369.97840331L361.38490444 369.97840331c-7.91676198 0-14.0070064 6.10483472-14.00700639 14.02159669 0 7.58119402 6.09093898 14.02229125 14.0070064 14.02229125l301.19892686 0c7.93204682 0 13.85415999-6.44109724 13.85416-14.02229125C676.4379913 376.08393257 670.51587813 369.97840331 662.58383131 369.97840331zM662.58383131 444.36400805L361.38490444 444.36400805c-7.91676198 0-14.0070064 6.27296597-14.00700639 14.02229125 0 7.61176372 6.09093898 14.02159669 14.0070064 14.0215967l301.19892686 0c7.93204682 0 13.85415999-6.40913843 13.85416-14.0215967C676.4379913 450.63766858 670.51587813 444.36400805 662.58383131 444.36400805z"  horiz-adv-x="1024" />

    
    <glyph glyph-name="shijian" unicode="&#58913;" d="M813.74851286 573.49806658L674.94419766 689.97299331 636.01863904 643.80547085 774.82295487 527.33054411 813.74851286 573.49806658 813.74851286 573.49806658ZM387.67961248 643.80547085L349.05580234 689.97299331 210.25148588 573.79981567 249.17704449 527.63229257 387.67961248 643.80547085 387.67961248 643.80547085ZM527.0874259 504.69940527L481.82514883 504.69940527 481.82514883 323.65029576999996 625.15569296 237.65196930000002 647.78683117 274.76703648 527.0874259 346.28143461 527.0874259 504.69940527 527.0874259 504.69940527ZM512 625.39881117C362.03098834 625.39881117 240.42633703 503.79415987 240.42633703 353.82514883 240.42633703 203.85613718000002 361.72923987 82.25148714 512 82.25148714 661.96901294 82.25148714 783.57366297 203.85613718000002 783.57366297 353.82514883 783.57366297 503.79415987 661.96901294 625.39881117 512 625.39881117L512 625.39881117ZM512 142.60118753999996C395.22332481 142.60118753999996 300.77603998 237.04847492 300.77603998 353.82514883 300.77603998 470.6018234 395.22332481 565.04910822 512 565.04910822 628.77667519 565.04910822 723.22395874 470.6018234 723.22395874 353.82514883 723.22395874 237.04847492 628.77667519 142.60118753999996 512 142.60118753999996L512 142.60118753999996Z"  horiz-adv-x="1024" />

    
    <glyph glyph-name="arrow-right-thick" unicode="&#58909;" d="M484.26553969 80.04321474999995l305.62832114 303.95542738-305.6276422 303.95814312v-178.89168208h-250.1587216v-250.12952741h250.1587216z"  horiz-adv-x="1024" />

    
    <glyph glyph-name="chaxun" unicode="&#58926;" d="M783.92755484 120.61959137999997l-13.29635663-13.30547515c-9.9738958-9.96998769-26.59596962-9.96998769-36.56595731 0L640.99009452 203.72084195000002c-43.21413533-29.91843046-96.40216709-49.86687322-152.91200729-49.86687324-139.61565128 0-255.9662605 116.34604996-255.9662605 259.28351031 0 139.62021054 116.35060922 255.9662605 259.2880702 255.96626048 142.93746034 0 259.28285916-116.34539882 259.28285916-259.28351028 0-59.83620978-19.94323173-116.34474769-56.50984083-162.88525196l93.0803574-93.08100855C793.90210182 147.20188260999998 793.90210182 130.58892729000002 783.92755484 120.61959137999997L783.92755484 120.61959137999997 783.92755484 120.61959137999997zM491.39989629 602.62456277c-106.37606227 0-192.80433355-86.42761952-192.80433356-189.48708376 0-103.04904218 86.42761952-189.47731346 192.80433356-189.47731345 106.37606227 0 192.79847138 86.42761952 192.79847138 189.47731345C684.19901946 516.19629212 594.44959025 602.62456277 491.39989629 602.62456277L491.39989629 602.62456277 491.39989629 602.62456277zM491.39989629 602.62456277"  horiz-adv-x="1024" />

    
    <glyph glyph-name="xuanzhong-copy" unicode="&#58914;" d="M512 752.64c-202.752 0-368.64-165.888-368.64-368.64s165.888-368.64 368.64-368.64c202.752 0 368.64 165.888 368.64 368.64 0 202.752-165.888 368.64-368.64 368.64zM512 97.28c-157.696 0-286.72 129.024-286.72 286.72s129.024 286.72 286.72 286.72 286.72-129.024 286.72-286.72-129.024-286.72-286.72-286.72zM512 588.8c-112.64 0-204.8-92.16-204.8-204.8s92.16-204.8 204.8-204.8c112.64 0 204.8 92.16 204.8 204.8 0 112.64-92.16 204.8-204.8 204.8z"  horiz-adv-x="1024" />

    
    <glyph glyph-name="gerenziliao" unicode="&#58896;" d="M342.40447382 535.89617392C361.76487157 535.89617392 377.46329159 555.17775545 377.46329159 578.96694639L377.46329159 627.3545749699999C377.46329159 651.14307837 361.76624272 670.42534743 342.40447382 670.42534743 323.0427083 670.42534743 307.34908533 651.13964127 307.34908533 627.3545749699999L307.34908533 578.9676333699999C307.34908533 555.1791299500001 323.04407553 535.89617392 342.40447382 535.89617392L342.40447382 535.89617392 342.40447382 535.89617392ZM760.10610799 618.9527265500001L740.72241022 618.9527265500001 739.19087487 550.51188655C739.19087487 550.51188655 738.71599675 520.48213622 709.57912263 520.41908461 707.74950239 520.41568554 705.91576873 520.41293597 704.08889079 520.41087394 694.6454471 520.4266463399999 677.75332146 520.44581783 658.97127693 520.40743683 654.61650398 520.41362351 651.72611698 520.4197721400001 650.89627786 520.4197721400001 621.2372425 521.38323036 622.61459711 549.73208403 622.61459711 549.73208403L622.61459711 618.9527265500001 620.85281381 618.9527265500001 403.14992402 618.9527265500001 401.38540289 618.9527265500001 401.38540289 549.73208403C401.38540289 549.73208403 402.76549924 521.38185586 373.10372214 520.4197721400001 372.27594114 520.4197721400001 369.38349602 520.41362351 365.02872307 520.40743683 346.24667854 520.44719234 329.3545529 520.42935787 319.91248035 520.41087394 318.08491489 520.41362351 316.25186876 520.4170225600001 314.4243033 520.41908461 285.28742917 520.48213622 284.80843815 550.51188655 284.80843815 550.51188655L284.80843815 618.95341408 265.17942268 618.95341408C263.89389201 618.95341408 227.43305293 621.55598948 225.86040212 582.13416125 225.62741579 580.5368627299999 225.57465257 579.5905133900001 225.57465257 579.5905133900001 225.57465257 579.5905133900001 225.63427098 177.07372628999997 225.63427098 160.92922789 225.63427098 121.80619892000004 265.28084018 121.4436991 265.28084018 121.4436991L758.72258573 121.4436991C758.72258573 121.4436991 798.36572902 121.80482385000005 798.36572902 160.92922789 798.36572902 177.07372628999997 798.42534743 579.5905133900001 798.42534743 579.5905133900001 798.42534743 579.5905133900001 798.37258421 580.53617521 798.14234017 582.1334737 796.56694707 621.55736398 760.10610799 618.9527265500001 760.10610799 618.9527265500001ZM290.17395637 205.10976487000005L290.17395637 248.05989522000004C290.17395637 270.00641623 329.73829407 292.23733859000004 363.46635282 304.43481907 365.90310302 305.32770254 377.54688919 311.66625743 371.03837721 328.74751946000003 354.33195478 345.80686042 341.71031585 373.44919785 341.71031585 400.65639757 341.71031585 442.32994915 369.26562976 464.16613935 401.48682042 464.16613935 433.68951146 464.16613935 461.4058574 442.32994915 461.4058574 400.65639757 461.4058574 373.56021622000003 448.71158111 346.02610950999997 432.10520839 328.92567603 425.82214002 309.55568416000006 436.01867651 304.95832852 437.63175918 304.43344455 473.01675387 292.72044249 512.77913067 270.66771472999994 512.77913067 248.05852015000005L512.77913067 205.10976487000005C401.48682042 205.10976487000005 387.01012702 205.10976487000005 290.17395637 205.10976487000005ZM709.3612139 235.47314311000002L584.20284617 235.47314311000002C569.35756923 235.47314311000002 557.32319065 247.50476430000003 557.32319065 262.35003732999996 557.32319065 277.19531036 569.35825284 289.22968169 584.20284617 289.22968169L709.3612139 289.22968169C724.20649086 289.22968169 736.24086945 277.19462282999996 736.24086945 262.35003732999996 736.24018585 247.50613936000002 724.20511971 235.47314311000002 709.3612139 235.47314311000002L709.3612139 235.47314311000002 709.3612139 235.47314311000002ZM709.3612139 341.89535923999995L584.20284617 341.89535923999995C569.35756923 341.89535923999995 557.32319065 353.93041753 557.32319065 368.77500361 557.32319065 383.62027663000003 569.35825284 395.65193585 584.20284617 395.65193585L709.3612139 395.65193585C724.20649086 395.65193585 736.24086945 383.61825209000006 736.24086945 368.77500361 736.23881469 353.93041753 724.20511971 341.89535923999995 709.3612139 341.89535923999995L709.3612139 341.89535923999995 709.3612139 341.89535923999995ZM681.7668393 535.89617392C701.12723369 535.89617392 716.82222723 555.17775545 716.82222723 578.96694639L716.82222723 627.3545749699999C716.82222723 651.14307837 699.81018112 670.42534743 680.44978283 670.42534743 661.08733033 670.42534743 646.7093927 651.1403288 646.7093927 627.3545749699999L646.7093927 578.9676333699999C646.70802153 555.1791299500001 662.40644099 535.89617392 681.7668393 535.89617392L681.7668393 535.89617392 681.7668393 535.89617392Z"  horiz-adv-x="1024" />

    
    <glyph glyph-name="xiaoxi1" unicode="&#58955;" d="M829.44 742.4l-614.4 0c-75.093333 0-136.533333-61.44-136.533333-136.533333l0-341.333333c0-75.093333 61.44-136.533333 136.533333-136.533333l78.506667 0 58.026667-150.186667c6.826667-13.653333 17.066667-20.48 30.72-20.48s27.306667 6.826667 30.72 20.48l58.026667 150.186667 351.573333 0c75.093333 0 136.533333 61.44 136.533333 136.533333l0 341.333333C965.973333 680.96 904.533333 742.4 829.44 742.4zM897.706667 264.533333c0-37.546667-30.72-68.266667-68.266667-68.266667l-375.466667 0c-13.653333 0-27.306667-6.826667-30.72-20.48l-37.546667-92.16-37.546667 92.16c-6.826667 13.653333-17.066667 20.48-30.72 20.48l-102.4 0c-37.546667 0-68.266667 30.72-68.266667 68.266667l0 341.333333c0 37.546667 30.72 68.266667 68.266667 68.266667l614.4 0c37.546667 0 68.266667-30.72 68.266667-68.266667L897.706667 264.533333zM727.04 537.6l-409.6 0c-20.48 0-34.133333-13.653333-34.133333-34.133333s13.653333-34.133333 34.133333-34.133333l409.6 0c20.48 0 34.133333 13.653333 34.133333 34.133333S747.52 537.6 727.04 537.6zM658.773333 401.066667l-341.333333 0c-20.48 0-34.133333-13.653333-34.133333-34.133333 0-20.48 13.653333-34.133333 34.133333-34.133333l341.333333 0c20.48 0 34.133333 13.653333 34.133333 34.133333C692.906667 387.413333 679.253333 401.066667 658.773333 401.066667z"  horiz-adv-x="1024" />

    
    <glyph glyph-name="11" unicode="&#58938;" d="M809.81854153 116.90187119999996l-110.8455062 110.80205441c35.97807884 44.71188785 57.61706829 101.41646862 57.6170683 163.24836015 0 143.99921894-116.71149731 260.71071625-260.71071625 260.71071626-143.99921894 0-260.71071625-116.71149731-260.71071624-260.71071626 0-143.99921894 116.71149731-260.71071625 260.71071624-260.71071624 66.48123264 0 127.0095706 25.11513232 173.02501202 66.09016657l110.19372939-110.15027762C783.35640384 81.96663521999994 788.91823244 79.83749770999998 794.48006106 79.83749770999998c5.51837683 0 11.08020545 2.12913752 15.33848047 6.34396077C818.29163981 94.65455674999998 818.29163981 108.42877293000004 809.81854153 116.90187119999996zM495.87938738 173.69335556c-119.79657413 0-217.2589302 97.46235609-217.2589302 217.2589302 0 119.79657413 97.46235609 217.2589302 217.2589302 217.25893021 119.79657413 0 217.2589302-97.46235609 217.25893021-217.25893021C713.13831759 271.15571164999994 615.67596149 173.69335556 495.87938738 173.69335556z"  horiz-adv-x="1024" />

    
    <glyph glyph-name="check-copy-copy" unicode="&#58893;" d="M802.3768238 549.14987174c-9.93776613 9.31896803-25.60881293 8.87381529-34.92778096-1.0878196l-329.65588316-350.98860435-180.07919626 177.43453554c-9.73965524 9.59166882-25.38683329 9.49201667-34.97850211-0.24704187-9.59166882-9.71399631-9.46814789-25.38683329 0.27150736-34.95343989l198.1257833-195.18335958c0.07399323-0.07399323 0.17304864-0.09905543 0.24704185-0.17304866s0.09905543-0.17304864 0.17304865-0.24704184c1.55684111-1.48344462 3.43591073-2.32362563 5.24039042-3.3123898 0.88970873-0.51914595 1.65589654-1.28533374 2.59572971-1.65589654 2.91736151-1.13734732 6.00657822-1.72988976 9.07192617-1.72988976 3.23779986 0 6.47619644 0.64207016 9.49201665 1.92740391 1.01263296 0.42009052 1.80447968 1.28533374 2.74371615 1.8295419 1.85400741 1.08781959 3.78141131 2.00259056 5.36450807 3.60836265 0.07399323 0.07399323 0.09905543 0.19751416 0.17304865 0.27150737 0.04952771 0.07399323 0.14917987 0.09905543 0.22197964 0.17304864l346.98401997 369.40456076c9.39355795 9.91151047 8.87381529 25.55988194-1.06275738 34.92778095z"  horiz-adv-x="1024" />

    
    <glyph glyph-name="shaixuan1" unicode="&#59047;" d="M749.48660564 547.87232781c3.80637646 3.79942417 8.08550835 8.08550835 10.86642266 12.97991752 20.82904815 25.8590269 23.31796646 65.00039577 5.83992004 93.40743541-17.6066637 28.61213208-43.70554448 43.12155247-77.56317616 43.12155248L269.57727146 697.38123322c-8.12026977 0-16.51167869 0-23.81853103-2.30468274-17.89170742-4.32779789-34.26086426-14.90222454-46.12493992-29.80444909C187.55072784 650.09873772 180.89739036 631.34147072 180.89739036 612.45906258c0-24.50333118 9.33691978-46.21879578 26.30049706-61.17663861 53.88369083-52.03438282 107.6804781-105.81031323 159.73571778-157.86902904l0-171.81879043 0.09037971-1.44607544c2.8295803-22.62273788 20.01563072-34.98042583 40.81686973-26.04673863l0.36151887 0.170331c11.25575065 5.62439918 17.70747185 16.95314885 17.70747184 31.08019352L425.90984535 401.99251556c0 11.92317009-3.67428303 21.64594173-10.92551708 28.8971758-26.00154877 26.0050249-51.62072183 53.02855969-76.391716 79.16567802-25.53922176 26.94705963-51.95095539 54.81182098-79.55500603 82.41587162l-1.35221957 1.36612415-1.63031103 0.802989c-0.38237572 0.26418686-1.23055459 1.36960029-1.873641 2.21430302-0.70565701 0.91422558-1.39393329 1.77978516-2.11697102 2.56886959-4.76579189 6.10758305-5.77039718 11.29746438-3.54566574 18.30189229 3.86894703 8.75640393 11.62769795 18.805933 21.05499744 18.805933l422.81021118 0c5.14816761 0 10.11209965-2.7809143 13.97409439-7.83522607 5.0091219-6.55948162 6.87233448-15.23245811 4.81098175-22.80349731-1.04979515-4.18875218-2.79829502-6.08672619-8.07855606-11.37741565-58.22191716-56.33784771-113.833251-111.94570541-172.70868301-170.81766129l-0.31285287-0.31632901c-5.96506118-5.95810891-12.80958653-14.6310854-12.80958652-28.90065192L517.25940418 97.56582641c0-3.64995003 0-13.93585682 7.51889706-22.16736316 0 0 2.28382587-5.1551199 12.12826253-8.89892578 12.16650009-4.62327004 24.05143261 0.64308643 24.0514326 0.64308643l3.10419559 2.32206345c12.17345238 9.1353035 12.17345238 23.36315632 12.17345238 31.86580181l0 280.80629825c29.11269665 29.04317378 59.2786646 57.29378701 88.47131252 84.63017465C694.4349308 494.59696197 722.50826072 520.89050675 749.48660564 547.87232781zM814.53219128 167.46410751999997L654.79994965 167.46410751999997c-16.68896198 0-26.66201591-13.56043339-26.66201592-26.67244436l0-7.52237319c0-16.69243813 13.5534811-26.66549206 26.66201591-26.66549206l159.73224164 0c16.69591427 0 26.66896821 13.55695725 26.66896819 26.66549206l0 7.52237319C841.20115947 156.74368286000004 830.48421097 167.46410751999997 814.53219128 167.46410751999997zM814.53219128 263.29441452000003L654.79994965 263.29441452000003c-16.68896198 0-26.66201591-13.56043339-26.66201592-26.67244435l0-5.62787532c0-16.69939041 13.5534811-26.67592048 26.66201591-26.67592048l159.73224164 0c16.69591427 0 26.66896821 13.56043339 26.66896819 26.67592048l0 5.62787532C841.20115947 249.73398112999996 831.22810555 263.29441452000003 814.53219128 263.29441452000003zM814.53219128 355.37396335000005L654.79994965 355.37396335000005c-16.68896198 0-26.66201591-13.56043339-26.66201592-26.67244433l0-3.75771047c0-16.68896198 13.5534811-26.66549206 26.66201591-26.66549205l159.73224164 0c16.69591427 0 26.66896821 13.55695725 26.66896819 26.66549205l0 3.75771047C841.20115947 344.65701485 830.48421097 355.37396335000005 814.53219128 355.37396335000005z"  horiz-adv-x="1024" />

    
    <glyph glyph-name="kefu" unicode="&#59168;" d="M744.36435327 500.12518992C724.36709027 606.77686148 625.57123058 688.9236511199999 512 688.9236511199999 395.2906217 688.9236511199999 294.50887962 609.07542489 279.63564673 500.12518992c-29.248205-6.9034476-43.57066582-23.22849895-43.57066582-43.56648877l0-116.18605532c0-25.38504314 18.91958764-43.56648879 43.57066582-43.56648879 20.13928224 0 35.39799592 4.23969187 43.56648878 14.52474872 19.74186707-53.21424923 60.40531562-92.67053429 72.61598621-101.66130659 15.14474025-11.15984761 46.2051823-16.64907005 43.5664888-14.52474873-15.57139466 12.56691213-44.53138417 52.90156823-58.09183422 116.18605532-6.82289047 31.89525261 4.92174222 68.03139049 29.04591711 72.6124059 38.73425449 7.34561673 85.91626657-4.76301484 116.18605531 14.5247487 24.01079818 15.28675947 35.36935337 33.28560896 43.56648877 43.5664888 3.66087397 4.59712683 11.24577521 17.86876464 14.52474871 29.04532037 2.80935529 7.37783959 14.20908411 0.41352658 14.52116841 0 0 0 50.85899747-16.69382401 58.09123749-116.18187826 4.99394527-68.27425532-48.16361561-149.9102531-58.09123749-159.75254411-1.5043298-1.47568726-0.65281111-0.15455033 0 0 58.2046142 14.0831763 90.62677009 78.34389644 101.6613066 130.70662699 7.49897362-9.27481078 12.65164628-25.86719247 29.04532038-29.04532039C713.34866518 214.31983402000003 627.40375608 150.80023945999994 555.56648879 137.05361296c-10.4061909 20.09930204-15.79814806 29.04591711-43.56648879 29.04591711-30.37898842 0-43.57066582-22.30835754-43.57066582-43.5664888 0-19.99726301 13.48765027-43.4566924 43.25798481-43.45669239 28.22304096 0 41.30074494 9.75755683 43.87857308 28.93612072 124.95067094 33.36676282 168.27787523 80.82445929 203.32261319 188.79428416 24.16475182 6.5543667 29.04591711 19.0043218 29.0459171 43.57066583L787.93442236 456.55929787C787.93501909 499.75641729 744.49443811 499.44433301 744.36435327 500.12518992L744.36435327 500.12518992zM686.27371249 456.55929787C651.5565735 553.56678928 583.65109082 587.26234454 512 587.26234454c-72.19052523 0-154.2800298-34.54707394-188.79846121-130.70304668-1.47568726 1.81641408-12.85035386 12.93150772-14.5247487 14.52057167C325.30139462 568.33082251 413.00602946 645.3529853 512 645.3529853c98.51182122 0 171.63442226-77.70361645 188.79846121-174.27371248C694.68447348 462.71266908 686.27371249 456.55929787 686.27371249 456.55929787L686.27371249 456.55929787zM686.27371249 456.55929787"  horiz-adv-x="1024" />

    
    <glyph glyph-name="tuichu" unicode="&#58951;" d="M820.25095891 394.90707723l-117.74755084 117.74755083c-5.77178901 5.77178901-15.13025985 5.7724255-20.90268534 0l-23.80194637-23.80194637c-5.77178901-5.77178901-5.77178901-15.13025985 0-20.90268536l51.9390995-51.93909949-236.74327968 0c-8.16312241 0-14.78018442-6.61769852-14.78018443-14.78018443l0-33.66197985c0-8.1624859 6.61769852-14.78018442 14.78018443-14.78018442l236.63061904 0-51.939736-51.93973601c-5.77178901-5.77178901-5.77178901-15.13089635 0-20.90268535l23.80194636-23.80194637c5.7724255-5.77178901 15.13089635-5.77178901 20.90268538-0.0006365l94.05635558 94.05635559c0.00063651 0.001273 0.00190949 0.00190949 0.00254599 0.00254601l23.80258289 23.80258287c5.76987951 5.770516 5.76987951 15.12962334-0.00127301 20.90141234zM590.24124128 669.14322102L271.87174302 669.14322102c-24.48920935 0-44.34167862-19.85246926-44.34167862-44.34102685l0-480.80661356c0-24.48855757 19.85181749-44.34102683 44.34167862-44.34102684L590.24124128 99.65455377c24.48855757 0 44.34102683 19.85246926 44.34102684 44.34102684l0 62.38481552c0 8.16285253-6.61683798 14.78099406-14.78034229 14.78099406l-32.03678459 0c-8.16220075 0-14.78034229-6.61748976-14.78034228-14.78099406l0-23.7298894c-0.16229242-12.10414677-10.0197646-21.86841487-22.16301798-21.86841487L310.67722959 160.78209186000004c-12.24427879 0-22.17083931 9.92590874-22.17083933 22.1708393L288.50639026 586.3597473c0 12.24427879 9.92590874 22.17083931 22.17083933 22.17083931l240.14520317 0c12.14325338 0 22.00072556-9.76361632 22.16301799-21.86841489l0-24.431853c0-8.16285253 6.61748976-14.78034229 14.78034227-14.78034228l32.03678459 0c8.16285253 0 14.78034229 6.61748976 14.78034228 14.78034228l0 62.57187545C634.58291989 649.29075176 614.73045063 669.14322102 590.24124128 669.14322102z"  horiz-adv-x="1024" />

    
    <glyph glyph-name="jiantou" unicode="&#59014;" d="M330.99250454 637.3193414899999c-15.64631031 15.96274939-15.64260459 41.88480094 0.02890196 57.87274657 15.77599796 16.11022257 41.05405639 16.00943689 56.71148238 0.03927679l272.39089889-278.01639667c15.64631031-15.97016008 15.64260459-41.89221164-0.02519625-57.88386298-0.73366386-0.74848525-1.48214911-1.45695287-2.25138477-2.13651852-1.52513162-2.42405565-3.33038967-4.72657448-5.41355085-6.8519766L380.04201544 72.33362410999996c-15.65372101-15.98053493-40.93548442-16.07390992-56.7144465 0.02519624-15.66409584 15.99165063-15.67150656 41.92111359-0.02519625 57.88386297l252.25960458 257.4641719L330.99250454 637.3193414899999 330.99250454 637.3193414899999 330.99250454 637.3193414899999z"  horiz-adv-x="1024" />

    
    <glyph glyph-name="guanzhu" unicode="&#58903;" d="M802.59697146 446.99807705c-4.98720861 15.59319144-18.18198164 26.76681755-34.07949175 29.12980172l-151.05656502 26.54378971-67.48642589 135.7246152c-7.04795844 14.58504958-22.12283595 23.99599221-38.35384531 23.99599222-16.31021518 0-31.04672954-9.14761665-38.39414276-23.8834358L405.70464127 502.59732586l-150.64385926-27.33098806c-16.27130681-2.43663155-29.47094373-13.68460094-34.38103087-29.13119081-5.06155123-15.33333958-0.82541149-32.57804855 11.09858895-44.20606832L340.31648382 301.6777052l-28.45585435-146.14786767c-2.70065208-16.04688987 4.0096378-32.50509572 17.02168114-41.76526811 12.89670803-9.41302627 31.34409997-10.64975439 44.69103233-3.59901638l138.01117176 67.4850361 136.80918333-67.33843522c6.18780727-3.18770042 13.04330893-4.87117877 19.87101844-4.87117875l0-0.00208434c8.92319903 0 17.88252687 2.96119849 25.04651584 8.16865606 13.23368138 9.52488814 19.94675081 25.98587286 17.13284777 42.18422684l-27.51788642 145.8831519 108.87511706 101.52839839C803.38208481 414.49159155 807.62100412 431.74046918 802.59697146 446.99807705L802.59697146 446.99807705zM778.40365859 426.11683243l-124.13828268-115.77091618 31.42122147-166.47119474c0.84486566-4.89549615-1.23325403-9.90354874-5.36309035-12.91685676-4.0096378-2.88755109-9.13511001-3.46492215-14.18276547-0.80387298l-154.52079193 76.02401545L355.79503451 129.91706750000003c-4.35633893-2.3108746-9.79029775-1.96347894-13.99586714 1.12278194-3.97142467 2.85142162-6.01410942 7.90185666-5.24497615 12.48747639l32.46271325 166.78107184L245.1065135 424.7696329c-3.54621228 3.50938893-4.89549615 8.75089098-3.27593878 13.57065473 1.50352753 4.77807653 5.55137914 8.24855711 11.02702589 9.05798851l170.59338896 30.99461999 76.29289985 153.55503252c4.55157458 9.14066843 19.16163679 9.17818701 23.59579242 0.04307703l76.4103195-153.6731474 171.01999044-29.99551066c5.05043503-0.73230924 9.09967575-4.16388146 10.68032477-9.05868305C782.98997356 434.55993064 781.68237692 429.31842861 778.40365859 426.11683243L778.40365859 426.11683243zM511.61855984 211.05682807000005L511.61855984 211.05682807000005z"  horiz-adv-x="1024" />

    
    <glyph glyph-name="jiazai" unicode="&#58912;" d="M581.52285766 627.33000183c0-47.9707718-38.88934852-86.90357209-86.90357208-86.90357209s-86.90357209 38.93280029-86.90357208 86.90357209 38.93280029 86.90357209 86.90357208 86.90357209 86.90357209-38.88934852 86.90357208-86.90357209z m97.41890431-154.55800296c20.03127337 0 40.06254673 7.64751435 55.31412363 22.89909126 30.5466056 30.5466056 30.5466056 80.03818989-1e-8 110.58479547-15.29502869 15.29502869-35.32630206 22.89909125-55.31412362 22.89909125s-39.97564316-7.64751435-55.22722006-22.89909126c-30.5466056-30.5466056-30.5466056-80.03818989 0-110.58479546 15.25157691-15.25157691 35.28285026-22.89909125 55.22722006-22.89909126zM755.33000183 436.18559504c-38.36792707-0.04345179-69.52285766-31.11147881-69.52285766-69.52285766S716.96207476 297.09642791 755.33000183 297.09642791c38.45483065 0 69.52285766 31.1549306 69.52285767 69.56630947-0.04345179 38.41137886-31.11147881 69.52285766-69.52285767 69.52285765zM679.02866555 243.12930964999998c-15.59919119 0-31.1549306-5.95289468-43.0172682-17.81523227-23.76812695-23.76812695-23.76812695-62.30986118 0-86.03453636 11.86233759-11.86233759 27.418077-17.81523228 43.0172682-17.81523228 15.51228762 0 31.1549306 5.95289468 43.01726817 17.90213584 23.76812695 23.68122339 23.76812695 62.22295762 0 85.99108459-11.86233759 11.81888581-27.50498057 17.77178049-43.01726817 17.77178048zM494.70618915 158.09416437000004c-28.80853415 0-52.14214326-23.42051268-52.14214324-52.18559504 0-28.85198593 23.33360911-52.09869145 52.18559504-52.09869145 28.76508235 0 52.09869145 23.33360911 52.09869144 52.09869145s-23.37706089 52.18559504-52.14214324 52.18559505zM310.29680921 225.61823987000002c-11.12365723 0-22.24731445-4.25827503-30.76386453-12.7313733-16.98964835-16.98964835-16.98964835-44.45117712 0-61.44082546 8.47309828-8.47309828 19.5967555-12.73137332 30.72041274-12.73137332s22.24731445 4.25827503 30.76386451 12.73137332c16.94619655 16.98964835 16.98964835 44.53808069 0 61.44082546-8.42964649 8.51655007-19.5967555 12.73137332-30.72041274 12.73137331zM233.90856933 401.33726263c-19.20568942 0-34.76142883-15.51228762-34.76142883-34.76142884 0-19.16223765 15.51228762-34.76142883 34.76142884-34.76142883 19.20568942 0 34.80488062 15.55573941 34.76142883 34.76142883 0.04345179 19.24914122-15.55573941 34.76142883-34.76142883 34.76142883z m76.34478809 123.5768795c1.65116787 0 3.25888396 0.65177679 4.91005181 0.9559393 4.91005183 0.95593929 9.68974829 2.86781787 13.51350546 6.69157505 10.21116973 10.16771794 10.16771794 26.67939663 0 36.89056635a26.17155388 26.17155388 0 0 1-18.42355728 7.60406255c-6.69157505 0-13.33969833-2.56365538-18.46700907-7.64751435-10.16771794-10.16771794-10.16771794-26.67939663 0-36.84711455 5.08385897-5.12731075 11.77543402-7.64751435 18.46700907-7.64751434z"  horiz-adv-x="1024" />

    
    <glyph glyph-name="keyanxinxichaxun" unicode="&#59131;" d="M816.63922821 147.40110479999998l-58.22568459 58.52689522a35.63256458 35.63256458 0 0 1-23.10126977 10.47225363l-19.77875231 19.87762316c29.3876111 46.95786611 23.76347372 109.87186454-16.87241147 150.72043646-47.17285251 47.41083187-123.92530958 47.41083187-171.09356272 0-47.16595475-47.41083187-47.16595475-124.56222088 0.0045987-171.97075373 40.63358616-40.84512337 103.22567942-46.49570289 149.94441601-16.9597852l19.77875228-19.88222187c0.53229287-8.45460028 3.99621853-16.7516972 10.42281791-23.21278661l58.22108588-58.52804474c14.00285977-14.07068975 36.70059889-14.06839071 50.69426185 0.00229904 13.99941056 14.06839071 14.00285977 36.88569395 0.00574823 50.95408464z m-143.32812287 93.10752071c-33.19643489-33.36543476-87.19826855-33.36543476-120.39470279 0-33.20218312 33.36888396-33.19988409 87.64778512 0 121.01781924 33.19183617 33.36083604 87.19481935 33.36083604 120.39470279-0.00229905 33.19068666-33.36658428 33.19068666-87.65238384 0-121.01552019z m0.67255155-73.48397276l-0.38513644 0.38743547h-5.83797363a143.81902726 143.81902726 0 0 0-56.1091604-11.36553984c-19.63619394 0-38.65617048 3.92493937-56.19193606 11.36553984H240.27668998V548.08408589h521.55479277v-316.55890371c4.19510976-2.50395967 8.10625297-5.50572213 11.60696838-9.0259813l32.35028478-32.51583672V642.92069531c0 20.29724901-16.43439073 36.81326525-36.62587052 36.81326588H232.94645683c-20.19147976 0-36.6201229-16.51601687-36.62012225-36.81326588v-482.88137758c0-20.29839852 16.42864251-36.8109662 36.62012225-36.8109662h471.93086554l-15.10193493 15.17666267a59.50640563 59.50640563 0 0 0-15.79173055 28.61963855zM721.61522342 617.9155887100001c0 7.50728029 6.05870891 13.59243133 13.52690039 13.59243134h13.52230234c7.46934166 0 13.5269004-6.08515106 13.52690039-13.59243134v-15.40544523c0-7.50613075-6.05755875-13.59243133-13.52690039-13.59243134h-13.52230234c-7.46819213 0-13.5269004 6.08515106-13.52690039 13.59243134V617.9155887100001z m-62.88065791 0c0 7.50728029 6.05755875 13.59243133 13.52460073 13.59243134h13.52920009c7.46819213 0 13.52230168-6.08515106 13.52230169-13.59243134v-15.40544523c0-7.50613075-6.05411019-13.59243133-13.52230169-13.59243134h-13.52920009c-7.46819213 0-13.52460136 6.08515106-13.52460073 13.59243134V617.9155887100001zM595.85045844 617.9155887100001c0 7.50728029 6.05296003 13.59243133 13.52460072 13.59243134h13.5269004c7.46704197 0 13.5269004-6.08515106 13.52690106-13.59243134v-15.40544523c0-7.50613075-6.05870891-13.59243133-13.52690106-13.59243134h-13.5269004c-7.4716407 0-13.52460136 6.08515106-13.52460072 13.59243134V617.9155887100001z m-85.68876497-144.55710909c0 10.78151217-8.69717837 19.52122789-19.4235072 19.52122788H289.1418421c-10.72862787 0-19.42465672-8.7420154-19.42465674-19.52122789 0-10.78381185 8.69602885-19.52697678 19.42465674-19.52697678H490.73703674c10.73092691-0.00114952 19.42465672 8.74316492 19.42465673 19.52697678zM289.1418421 360.11121328h108.35431304c10.72632883 0 19.42350721 8.74431443 19.4235072 19.52927581 0 10.78036266-8.69832789 19.52122789-19.4235072 19.52122792H289.1418421c-10.72862787 0-19.42465672-8.74086588-19.42465674-19.52122792 0-10.78496137 8.69602885-19.52927581 19.42465674-19.52927581z m0-93.71684098H444.11832053c10.72402915 0 19.42235769 8.74316492 19.42235705 19.5292758 0 10.78036266-8.69832789 19.52582661-19.42235705 19.52582663H289.1418421c-10.72862787 0-19.42465672-8.74661412-19.42465674-19.52582663 0-10.78611089 8.69602885-19.52927581 19.42465674-19.5292758z"  horiz-adv-x="1024" />

    
    <glyph glyph-name="ren" unicode="&#58895;" d="M683.63600325 296.39830255000004c49.39164519 45.733729 80.50529659 110.92444361 80.50529659 183.37015808 0 138.00069988-112.27000058 250.25621652-250.30328929 250.25621653-137.9963547 0-250.27721823-112.27000058-250.27721822-250.25621652 0-72.44643867 31.14334344-137.62339353 80.51253855-183.37015808-80.73269427-56.65750802-135.08798183-142.64135063-137.11066246-223.11333418-0.0007242-0.25274455-0.00144839-0.55763125-0.00144839-0.8741051 0-19.43308711 15.50866663-35.24084687 34.82733071-35.75068116l0.97187161-0.00217259c19.42512095 0 35.23650169 15.50432146 35.73112786 34.80488062 1.61785483 64.8025453 55.45316933 138.87552917 130.17358482 181.49738609 32.03193247-14.90903198 67.58056283-23.48496616 105.18373847-23.48496616 37.61331439 0 73.16991091 8.55565668 105.20329177 23.48496616 74.76169466-42.57912934 128.57818007-116.6723907 130.19675911-181.44596814 0.49824714-19.35125291 16.29948914-34.84688402 35.7202649-34.86209213l0.91466011 0.00144838c19.35125291 0.47869385 34.85557437 16.27486646 34.85557436 35.68912446 0 0.32588839-0.0007242 0.66046715-0.00144839 0.98635555-1.98284984 80.42925596-56.35044873 166.40151143-137.07517684 223.06191623zM335.10560644 479.75687349c0 98.58848154 80.17289042 178.76137197 178.74833643 178.76137198 98.58848154 0 178.79396081-80.19099533 178.79396081-178.76137198 0-98.55951368-80.20620346-178.78527045-178.79396081-178.78527046-98.57544601 0.0007242-178.74833644 80.20620346-178.74833643 178.78527046zM609.5630194 443.31603312c-2.56582796 1.52733028-5.66176772 2.41374671-8.97496641 2.41374672-6.56628907 0-12.30627001-3.54856253-15.40293396-8.84605944-14.60993886-24.85442161-41.10249281-41.23936594-71.42097652-41.30671621-30.25620282 0.1028359-56.71471954 16.52399004-71.02628946 40.94534218-3.34506333 5.54734469-9.01262462 8.98220837-15.49128592 8.98220838-9.87224579 0-17.87751317-8.00671577-17.87751317-17.87751317 0-3.21615637 0.85455179-6.22736513 2.33408511-8.82867873 20.83875238-35.3987217 58.8148892-58.86196195 102.27464139-58.94814134 43.36705506 0.12456179 81.3337773 23.62690866 101.86909139 58.58531893 1.74314081 3.02641689 2.64259279 6.10787272 2.64259279 9.40441489 0 6.5800488-3.54856253 12.33016849-8.85040463 15.4355228z"  horiz-adv-x="1024" />

    
    <glyph glyph-name="chalv-daoda" unicode="&#58994;" d="M251.16317703 437.08476111c-9.46039055 9.39534813-24.76027784 9.35536792-34.15801283-0.11994062-9.39773498-9.47530853-9.3547712-24.76027784 0.11755372-34.17293082l52.842493-52.46417286c5.5280092-10.85134364 17.25235343-18.41476297 30.91185891-18.34017304l479.03923298 1.67021782c18.86051242 0.08055712 34.15920628 14.55935843 34.09595401 32.36308067-0.05370475 17.77090266-44.90254369 64.23983496-98.84717756 64.04530441l-103.5457467-12.43265024L364.97070852 592.4878169599999c-13.40231939 13.31639178-34.43727755 13.87611465-46.96420947 1.26385184-12.5448335-12.62539063-11.81922262-33.6508013 1.58608036-46.96659633l147.5603718-146.51551602-159.61589532-19.17677373-56.37387886 55.99197839zM329.12397958 217.12859257000002c-14.34752304 0-25.99369701-11.64199693-25.99369701-25.99011668s11.62707894-25.99369701 25.99369701-25.99369699h338.97664134c14.34752304 0 25.99369701 11.64617397 25.993697 25.99369699s-11.64557725 25.99011668-25.993697 25.99011669H329.12397958z"  horiz-adv-x="1024" />

    
    <glyph glyph-name="rencaitubiao" unicode="&#58905;" d="M381.645 458.445c30.822 0 55.808 24.986 55.808 55.808s-24.986 55.808-55.808 55.808-55.808-24.986-55.808-55.808 24.986-55.808 55.808-55.808zM512 793.6c-226.202 0-409.6-183.398-409.6-409.6s183.398-409.6 409.6-409.6 409.6 183.398 409.6 409.6-183.398 409.6-409.6 409.6zM512 48.845c-185.037 0-335.155 150.016-335.155 335.155 0 185.037 150.016 335.155 335.155 335.155 185.037 0 335.155-150.016 335.155-335.155 0-185.037-150.118-335.155-335.155-335.155zM656.179 309.35c-16.589-64.205-74.854-111.514-144.179-111.514-70.349 0-129.229 48.742-144.896 114.278-2.662 11.162-4.096 34.714-4.096 34.714h-74.445s1.024-24.371 2.867-36.045c17.306-106.291 109.466-187.392 220.57-187.392 110.49 0 202.138 80.179 220.16 185.446 2.15 12.39 3.174 37.99 3.174 37.99h-74.445c0.102-0.102-1.536-25.498-4.71-37.478zM642.355 458.445c30.822 0 55.808 24.986 55.808 55.808s-24.986 55.808-55.808 55.808-55.808-24.986-55.808-55.808c-0.102-30.822 24.883-55.808 55.808-55.808z"  horiz-adv-x="1024" />

    
    <glyph glyph-name="empty" unicode="&#59002;" d="M667.16361222 589.18748091v72.42869584c0 26.55990422-16.29441978 48.27221856-36.21434793 48.27221856h-262.05500589c-19.91992816 0-36.21434794-21.71231434-36.21434793-48.27221856h0.08147211v-72.42869585h-146.64977789v-48.27221856h49.98313264v-436.24235317c0-25.37855879 20.57170495-46.19468003 45.86879163-46.56130448h435.10174379v48.27221855h-434.449967v434.49070305h434.49070305V58.111604690000036c25.62297508 0 46.56130448 20.93832939 46.56130447 46.56130448v436.24235317h49.98313263v48.27221857h-146.48683369z m-46.56130448-1e-8h-241.40182882v72.42869585h241.40182882v-72.42869585zM475.78565206 468.52730254h48.27221856v-289.67404738h-48.27221856v289.67404738zM355.08473766 468.52730254h48.27221856v-289.67404738h-48.27221856v289.67404738zM596.48656647 468.52730254h48.27221856v-289.67404738h-48.27221856v289.67404738z"  horiz-adv-x="1024" />

    
    <glyph glyph-name="gongju-" unicode="&#58881;" d="M764.5599885 34.65359910999996a26.16001685 26.16001685 0 0 0-18.53236594 7.68415212L570.47865502 218.16922409999995a26.2730193 26.2730193 0 0 0 37.12123315 37.17773437l156.96010033-157.24260569 27.40304153 27.45954198L635.3984375 282.29799097a26.2730193 26.2730193 0 0 0 37.12123315 37.17773437l175.15345971-175.37946384a26.2730193 26.2730193 0 0 0 0-37.17773439L783.20535692 42.337751209999965a26.2730193 26.2730193 0 0 0-18.5888672-7.6841521zM573.19070847 698.82421875a26.21651807 26.21651807 0 0 1 1.46902959 10.33970435v0.11300245a25.99051317 25.99051317 0 0 1-2.54255057 9.66169041c-0.28250535 0.56501149-0.73451439 1.01701975-1.07352098 1.58203125A24.80398973 24.80398973 0 0 1 566.24107154 726.96177466c-0.79101563 0.67801319-1.6950337 1.13002221-2.59905177 1.69503371C562.11648973 729.78683058 560.70396217 731.08635569 558.89592601 731.8773713200001l-1.58203125 0.56501149h-0.05650045a245.1018413 245.1018413 0 0 1-269.39732154-54.86258348c-0.62151195-0.62151195-0.90401808-1.4690288-1.46902958-2.20354396-0.67801319-0.56501149-1.52553002-0.79101563-2.14704195-1.46902881L152.37039598 541.07310278a26.55552466 26.55552466 0 0 1 0-37.34723805l80.00558057-81.02260034a25.87751149 25.87751149 0 0 1 36.8387278 0l45.59640089 46.16141161 55.48409543-56.16210937a25.82101026 25.82101026 0 0 1 36.83872779 0 26.55552466 26.55552466 0 0 1 0 37.29073683L333.17396753 524.68777881a25.76450903 25.76450903 0 0 1-36.78222656 0l-45.5964009-46.16141162-43.11035156 43.67536306L320.96972656 636.5599884999999c0.67801319 0.67801319 0.90401808 1.58203125 1.52553002 2.26004519 0.67801319 0.56501149 1.52553002 0.84751685 2.20354399 1.52553005A194.36383962 194.36383962 0 0 0 442.50362745 697.01618336l-5.31110524-4.23758425a201.14397289 201.14397289 0 0 1-20.90541284-18.19335938c-0.45200903-0.45200903-0.56501149-1.01701975-0.96051929-1.4690288a261.99567554 261.99567554 0 0 1-46.04840917-63.67675781l0.33900659-0.16950368c-10.00069776-20.34040211-10.00069776-44.18387255 0.39550779-64.41127221 1.24302466-2.37304688 2.82505591-4.52008961 4.68959255-6.32812501 0.56501149-0.79101563 0.84751685-1.75153493 1.58203125-2.48604855l57.34863281-58.02664674a25.82101026 25.82101026 0 0 1 36.78222657 0 26.55552466 26.55552466 0 0 1 0 37.29073681L415.94810279 570.56668506a18.2498606 18.2498606 0 0 0 0.39550781 15.59430835l0.1695029 0.7345144a209.28013404 209.28013404 0 0 0 36.16071463 49.43847657c3.39006663 3.39006663 7.06263939 6.328125 10.56570849 9.43568625a147.58091527 147.58091527 0 0 0 86.95521752 35.59570314c0.45200903 0 0.84751685 0.28250535 1.29952588 0.28250536a25.82101026 25.82101026 0 0 1 8.47516775 2.2600452c0.39550781 0.22600413 0.67801319 0.56501149 1.1300222 0.73451439a25.3125 25.3125 0 0 1 6.89313572 5.3676057c0.22600413 0.22600413 0.33900658 0.56501149 0.50851027 0.7345144a25.82101026 25.82101026 0 0 1 4.40708715 6.66713236c0.22600413 0.45200903 0.16950367 0.9605193 0.3390066 1.41252757zM327.29785156 16.74274587000002a161.02818092 161.02818092 0 0 0-67.97084253 15.14229856 26.38602098 26.38602098 0 0 0-7.40164598 42.43233838l72.43443014 72.49093214-27.17703661 27.12053539-72.0389231-71.92592065a26.21651807 26.21651807 0 0 0-42.6018413 7.7971538 158.9376394 158.9376394 0 0 0 32.09263404 176.90499463 159.78515625 159.78515625 0 0 0 159.55915135 38.7032644l196.39787991 196.34137869a158.99414063 158.99414063 0 0 0 38.70326439 159.50265012 156.5080913 156.5080913 0 0 0 111.47670191 46.10491116c22.43094286 0 45.08789065-4.8590962 65.54129442-14.06877835a26.21651807 26.21651807 0 0 0 7.74065334-42.60184131L721.05412913 597.68722121l27.17703739-27.23353785 73.56445313 73.50795193a26.2730193 26.2730193 0 0 0 42.37583715-7.34514557 158.54213158 158.54213158 0 0 0-30.84960938-179.27804073 156.39508961 156.39508961 0 0 0-111.30719898-46.04840993c-17.06333717 0-34.18317554 2.82505591-50.34249464 8.19266162L476.40429687 224.44084787999998c18.64536839-56.33161305 4.52008961-119.27385569-37.85574754-161.64969286a156.33858839 156.33858839 0 0 0-111.307199-46.04840917z m-4.74609375 53.90206419a103.51004443 103.51004443 0 0 1 79.49707032 30.34109986c31.07561351 31.07561351 39.26827589 78.98856005 20.34040211 119.21735447a26.16001685 26.16001685 0 0 0 5.19810202 29.66308594l218.65931986 218.6593191A26.2730193 26.2730193 0 0 0 675.85323683 473.83677467a106.95661306 106.95661306 0 0 1 119.16085324 20.34040133c21.24441943 21.24441943 31.75362745 50.34249462 30.28459864 79.49707031l-59.43917432-59.49567477a26.16001685 26.16001685 0 0 0-37.06473192 0L664.72251686 578.36383962a26.21651807 26.21651807 0 0 0 0 37.06473192l58.19614965 58.19614965a104.4140625 104.4140625 0 0 1-76.78501684-30.51060277A104.4140625 104.4140625 0 0 1 625.00223193 525.42229319a26.2730193 26.2730193 0 0 0-5.36760571-29.38057979L400.01478783 276.53487743000005a26.38602098 26.38602098 0 0 0-29.26757811-5.36760645 106.90011183 106.90011183 0 0 1-117.69182446-21.1879182 103.96205346 103.96205346 0 0 1-30.62360523-76.95452053L279.72391161 230.31696462000002a26.16001685 26.16001685 0 0 0 37.06473269 0l64.18526731-64.18526808a26.16001685 26.16001685 0 0 0 0-37.06473192l-58.4221538-58.42215457z"  horiz-adv-x="1024" />

    
    <glyph glyph-name="feiji1" unicode="&#58884;" d="M793.59002363 647.56694698l-21.97211981 21.3449657s-40.4145062 13.13112974-68.40324998-15.32834172c-47.16329276-48.02581072-110.57031155-112.45322228-110.57031154-112.45322228L281.94162202 586.1232247400001l-39.02694582-35.75792314L473.28590703 416.82782436 388.92716121 334.03768802l-141.56664311-9.54780579-27.15229691-9.8092407 145.02033592-80.30469418 77.40066648-145.96179127 10.67248285 27.43980289 8.99814069 135.89111566s238.03685009 242.01268852 331.39518499 336.93963289c22.78321982 23.17645849-0.10500848 58.88151527-0.10500849 58.88151527zM557.98574937 331.63190747l115.04222452-215.33256771 30.50025701 34.47681964-31.75601362 285.22548974L557.98647357 331.63190747z m0 0"  horiz-adv-x="1024" />

    
    <glyph glyph-name="edit" unicode="&#58963;" d="M784.73030528 443.40697288c-14.60227049 0-26.42533538-11.82374777-26.4253354-26.41372352v-243.72042521H292.53222586v466.4407374h242.82566912c14.59134227 0 26.41509004 11.82374777 26.41509003 26.41509005s-11.82374777 26.41509004-26.41509003 26.41508926H274.20408484c-19.01662433 0-34.49042719-15.47448649-34.49042719-34.50203828v-503.09633581c0-19.02823543 15.47380286-34.50203905 34.49042719-34.50203904h502.42902607c19.02686969 0 34.50203905 15.47311999 34.50203904 34.50203904v262.04719972c-0.00068287 14.5906594-11.82374777 26.41440717-26.40484468 26.41440639zM387.07849513 376.24499868c-0.53890256-8.84031955-1.05526506-20.84779925-1.51835218-35.67546669-0.80869451-25.01421757-1.2178234-49.96423082-1.2178234-50.2128492a26.33859172 26.33859172 0 0 1 7.73177914-19.103368 26.38367111 26.38367111 0 0 1 18.67238268-7.75363558c0.15094725 0 0.29096629 0.01092821 0.43098455 0.01092822 0.25886451 0 25.19863237 0.43098533 50.21284996 1.21645767 14.82766669 0.48562643 26.83514714 0.99106069 35.67546594 1.54089148 16.31391707 0.98969496 26.16715375 1.60509508 34.31899 9.75556481l254.27102482 254.26214522c0.11884546 0.12909082 0.23769092 0.24656977 0.36678097 0.3763442 0.1932944 0.19466014 0.38658879 0.37770997 0.58193258 0.5819326 37.08590086 37.08590086 37.08590086 97.44227093 0 134.52953753-37.09751273 37.09614622-97.45319917 37.09614622-134.5616401-0.01092822-0.18304905-0.18441556-0.36541523-0.37770997-0.56007536-0.57100436-0.11747895-0.11884546-0.24656977-0.24793627-0.37634423-0.36678097L396.84430528 410.55237682c-8.15046973-8.14022438-8.75357588-17.99346185-9.76581015-34.30737813z m53.14027056 2.98342822l247.57470291 247.57470291a41.72770028 41.72770028 0 0 1 1.03409148 1.02316326c0.20558913 0.21446798 0.40981176 0.40844524 0.59217717 0.59217717 16.48740363 16.50721147 43.33142962 16.50721147 59.82976223 0 16.4860379-16.48740363 16.4860379-43.32118426 0-59.82976148-0.19466014-0.1932944-0.39888353-0.38658879-0.60310615-0.59217794-0.35585275-0.32306809-0.68984982-0.66730973-1.02316249-1.03409147L500.05945615 319.39866466c-11.69397409-0.93641959-36.49372292-1.84073739-62.33780938-2.49711815 0.65638152 25.84408567 1.58255576 50.64315165 2.49711892 62.32688038z"  horiz-adv-x="1024" />

    
    <glyph glyph-name="check_box_2" unicode="&#59171;" d="M742.58414459 683.0207076199999H282.93666792c-39.03418779 0-70.68157196-31.64738417-70.68157196-70.68157198v-459.64747666c0-39.03418779 31.64738417-70.68157196 70.68157196-70.68157196h459.64747667c39.03418779 0 70.68157196 31.64738417 70.68157197 70.68157196V612.33913565c0 39.03418779-31.64738417 70.68157196-70.68157197 70.68157196z m33.09577704-530.32904864c0-18.24975014-14.8460269-33.16819668-33.16819668-33.16819668H282.93666792c-18.24975014 0-33.16819668 14.8460269-33.16819667 33.16819668V612.33913565c0 18.24975014 14.8460269 33.16819668 33.16819667 33.16819667h459.64747667c18.24975014 0 33.16819668-14.8460269 33.16819667-33.16819668v-459.64747666z"  horiz-adv-x="1024" />

    
    <glyph glyph-name="checkbox_1" unicode="&#59172;" d="M742.58414459 683.0207076199999H282.93666792c-39.03418779 0-70.68157196-31.64738417-70.68157196-70.68157198v-459.64747666c0-39.03418779 31.64738417-70.68157196 70.68157196-70.68157196h459.64747667c39.03418779 0 70.68157196 31.64738417 70.68157197 70.68157196V612.33913565c0 39.03418779-31.64738417 70.68157196-70.68157197 70.68157196z m33.09577704-530.32904864c0-18.24975014-14.8460269-33.16819668-33.16819668-33.16819668H282.93666792c-18.24975014 0-33.16819668 14.8460269-33.16819667 33.16819668V612.33913565c0 18.24975014 14.8460269 33.16819668 33.16819667 33.16819667h459.64747667c18.24975014 0 33.16819668-14.8460269 33.16819667-33.16819668v-459.64747666zM708.58666668 516.8000000100001L476.69333331 298.88 358.4 421.76c-10.66666667 10.98666666-28.05333334 11.20000001-39.14666669 0.74666668-10.98666666-10.66666667-11.30666667-28.16-0.74666664-39.14666668l137.28000001-142.50666667c5.44000001-5.65333334 12.69333334-8.53333335 19.94666666-8.53333333 6.82666667 0 13.65333333 2.45333334 18.98666666 7.46666667l251.84000001 236.58666666c11.09333333 10.45333333 11.62666668 27.94666667 1.17333332 39.14666668-10.56000001 11.20000001-27.94666667 11.73333334-39.14666667 1.28z"  horiz-adv-x="1024" />

    
    <glyph glyph-name="market-subsidies" unicode="&#58894;" d="M781.46896689 389.70304692l1.35786829 0.74682758 1.2899749 0.8826144c28.71891485 19.34962348 32.65673295 42.09391773 32.65673295 63.81981074V544.02478078c0 47.11803049-37.88452596 85.47781036-84.3915157 85.47781035H293.31530806c-46.57488316 0-84.3915157-38.35977986-84.39151569-85.47781036v-88.87248113c0-13.78236339 0-46.09962925 36.32297738-65.99240005l0.814721-0.40736049 0.81472099-0.33946708c4.82043252-2.30837614 20.63959838-10.72715968 20.63959836-22.20114694 0-13.10342924-3.32677737-16.09073952-15.47969877-20.23223787l-1.76522882-0.61104075-1.62944196-0.81472098-1.56154857-0.74682756-1.83312223-0.88261441-1.69733539-1.08629466c-21.59010619-13.71446997-34.48985518-37.81663254-34.48985517-64.63453173V188.46696281000004c0-47.18592391 37.88452596-85.54570376 84.39151571-85.54570376h439.13461268c46.57488316 0 84.3915157 38.35977986 84.3915157 85.54570376V277.33944395000003c0 32.58883953-12.83185556 48.88325931-32.0456922 63.27666344l-2.17258931 1.62944196-2.37626955 1.22208149c-21.92957328 11.40609383-21.92957328 14.93655145-21.92957327 22.67640084 0 6.58566133 0.95050781 7.8077428 1.56154857 8.55457038 1.6973354 2.51205638 7.06091523 7.12880865 21.45431936 15.00444486z m-182.4975014-69.93021816c0.06789342-7.40038232-5.83883375-13.37500289-13.23921605-13.51078973h-52.88897083v-40.05711525c0-3.59835103-1.35786832-6.99302182-3.8699247-9.50507819-2.51205638-2.51205638-5.90672718-3.9378181-9.43718477-3.93781811h-13.23921606c-3.53045762 0-6.9251284 1.35786832-9.43718477 3.86992468-2.51205638 2.51205638-3.8699247 5.97462057-3.8699247 9.5050782v40.12500868h-52.95686423c-7.26459548 0-13.23921607 6.11040741-13.23921608 13.51078972v13.37500289c-0.06789342 7.40038232 5.83883375 13.44289631 13.23921608 13.51078972h52.95686423v13.23921606h-52.95686423c-7.26459548 0-13.23921607 6.042514-13.23921608 13.44289631V386.71573663c-0.06789342 7.3324889 5.83883375 13.37500289 13.23921608 13.4428963h34.82932225l-43.99493338 47.79696465c-4.61675227 5.29568642-4.61675227 13.23921607 0 18.53490248l8.41878355 9.30139795c2.37626955 2.51205638 5.70304692 3.8699247 9.16561111 3.86992471 3.4625642 0.06789342 6.72144816-1.35786832 9.09771771-3.86992471l55.33313379-60.01777946 55.26524036 60.01777946c2.37626955 2.51205638 5.70304692 3.8699247 9.16561112 3.80203128 3.4625642 0.06789342 6.78934157-1.35786832 9.16561111-3.8699247l8.48667698-9.36929136c4.61675227-5.29568642 4.61675227-13.23921607 0-18.53490248l-43.85914654-47.66117782h34.69353541c7.26459548 0 13.23921607-6.042514 13.23921606-13.4428963v-13.37500289c0.06789342-7.40038232-5.83883375-13.44289631-13.23921606-13.51078971h-52.88897082V346.65862136h52.95686424c7.26459548 0 13.23921607-6.042514 13.23921606-13.44289629v-13.44289631z"  horiz-adv-x="1024" />

    
    <glyph glyph-name="guanzhu1" unicode="&#58907;" d="M513.62895802 665.00503417c-16.01346832 0.12144434-30.6681348-8.85168893-37.60993954-23.0732803l-65.83887606-135.37378481-149.18979787-21.15537615c-15.34094162-2.15964712-28.14759175-12.65656326-33.17951225-27.0374071-5.0239006-14.4369832-1.43556384-30.44014022 9.29965818-41.40564823l108.33752343-111.11814069-26.50580166-155.20129306c-2.69354397-15.39822668 3.77394038-30.88925516 16.6458955-40.02851517 7.09532871-4.95057571 15.40280947-7.54558935 23.76413822-7.61662283a42.59717767 42.59717767 0 0 1 20.06466843 4.87954223l130.44612314 72.19866448 129.38062084-71.78850339c6.22115854-3.40502452 13.10224109-5.17169607 19.9432241-5.21866982 8.37507716-0.07103349 16.72724029 2.38535029 23.88443687 7.22021015 13.00829357 8.92959663 19.72668653 24.31063778 17.28519688 39.74208981l-24.15023961 153.04852014 110.07898953 109.32053521c10.89676593 10.79021569 14.74632259 26.71546502 9.92750254 41.24295864-4.82111145 14.46104294-17.4753833 25.18251655-32.77393395 27.58390666l-148.84265036 23.63925677-63.71359997 136.44616131c-6.67714771 14.32126738-21.20464132 23.55447488-37.25362639 23.69539615z"  horiz-adv-x="1024" />

    
    <glyph glyph-name="rili" unicode="&#58887;" d="M712.50991361 674.95738941H683.74356747V703.72373477c0 15.88627039-12.86663775 28.76634612-28.76634612 28.76634614s-28.76634612-12.88007574-28.76634614-28.76634614v-28.76634536H539.91104735V703.72373477c0 15.88627039-12.86663775 28.76634612-28.76634613 28.76634614s-28.76634612-12.88007574-28.76634613-28.76634614v-28.76634536H396.07852647V703.72373477c0 15.88627039-12.86663775 28.76634612-28.76634614 28.76634614-15.90049862 0-28.76634612-12.88007574-28.76634613-28.76634614v-28.76634536h-27.27787257c-79.27641635 0-143.94476863-64.47152304-144.19772215-143.72027314l-1.06714805-345.25464779c-0.11224775-38.42996001 14.77643683-74.57069145 41.88593739-101.75054371 27.10871033-27.17906281 63.17987872-42.13810066 101.58217249-42.13810067h403.09641705c79.27641635 0 143.77639663 64.51420853 143.77639663 143.81829188V531.15253553c-0.00158125 79.29064535-64.52922777 143.80485389-143.83410138 143.80485388z m86.29982863-489.04527343c0-47.57422886-38.68291351-86.28559962-86.24370437-86.28559962H309.46962005c-23.00770139 0-44.6107205 8.96166783-60.84796387 25.22657747-16.2372434 16.29336688-25.14278698 37.95251024-25.08666273 60.97444064l0.80075578 258.99750541h574.47399301v-258.9129239z m0 316.44561617H224.51360723l0.0885335 28.71022186c0.14070578 47.61612411 39.02044853 86.35595289 86.66503066 86.3559529h27.27787257v-28.76634613c0-15.88627039 12.86663775-28.76634612 28.76634613-28.76634615 15.90049862 0 28.76634612 12.88007574 28.76634613 28.76634615v28.76634613h86.29982863v-28.76634613c0-15.88627039 12.86663775-28.76634612 28.76634536-28.76634615s28.76634612 12.88007574 28.76634612 28.76634615v28.76634613h86.29982865v-28.76634613c0-15.88627039 12.86663775-28.76634612 28.76634612-28.76634615s28.76634612 12.88007574 28.76634614 28.76634615v28.76634613h28.76634612c47.58845787 0 86.29982863-38.69714252 86.29982864-86.27137138v-28.79480339zM462.03931253 165.50272092a28.74579364 28.74579364 0 0 1 20.33904256-8.42730357 28.74816514 28.74816514 0 0 1 20.33904178 8.42730357l172.59886704 172.68344855c11.23666895 11.23666895 11.23666895 29.45485417-1e-8 40.67729332-11.23666895 11.23666895-29.44062515 11.23666895-40.6772941 0L482.37756485 226.53328582999995l-65.96078686 65.98845308c-11.23666895 11.23666895-29.44062515 11.22323018-40.67808433 0.01422902-11.23666895-11.23666895-11.23666895-29.45485417 0-40.69152235l86.30061887-86.34172466z"  horiz-adv-x="1024" />

    
    <glyph glyph-name="xuanzhong" unicode="&#58911;" d="M511.971 832c-247.424 0-448-200.576-448-448s200.576-448 448-448 448 200.576 448 448-200.577 448-448 448zM486.24 251.53l0.119-0.119-51.81-51.81-0.119 0.119-0.119-0.119-51.81 51.81 0.119 0.119-109.978 109.977 51.81 51.81L434.43 303.34l265.059 265.059 51.81-51.81L486.24 251.53z"  horiz-adv-x="1024" />

    
    <glyph glyph-name="huidaodingbu" unicode="&#58915;" d="M209.105105 394.762763L522.762763 705.345345c6.15015 6.15015 15.375375 6.15015 18.45045 0l310.582583-310.582582c6.15015-6.15015 9.225225-6.15015 15.375375-6.15015s9.225225 0 15.375376 6.15015c9.225225 9.225225 9.225225 18.45045 0 27.675675L562.738739 736.096096c-18.45045 18.45045-55.351351 18.45045-76.876877 0l-307.507508-313.657658c-6.15015-6.15015-6.15015-18.45045 0-27.675675 3.075075-9.225225 21.525526-9.225225 30.750751 0z m-30.750751-141.453454h79.951952v-255.231231h36.900901v255.231231h79.951952V280.984985H178.354354v-27.675676zM522.762763 287.135135c-43.051051 0-76.876877-15.375375-98.402403-43.051051-24.600601-27.675676-36.900901-64.576577-36.900901-107.627628s15.375375-76.876877 36.900901-104.552552c24.600601-24.600601 55.351351-36.900901 95.327328-36.900901 43.051051 0 76.876877 15.375375 98.402402 43.051051 24.600601 27.675676 36.900901 64.576577 36.900901 107.627628s-12.3003 73.801802-33.825826 104.552552c-24.600601 27.675676-58.426426 36.900901-98.402402 36.900901z m64.576576-236.780781c-18.45045-18.45045-39.975976-27.675676-70.726726-27.675675-27.675676 0-52.276276 9.225225-70.726727 33.825826-18.45045 18.45045-27.675676 46.126126-27.675676 86.102102 0 33.825826 9.225225 61.501502 27.675676 86.102102 18.45045 18.45045 43.051051 33.825826 70.726727 33.825826 27.675676 0 52.276276-9.225225 70.726726-27.675676 18.45045-18.45045 24.600601-46.126126 24.600601-86.102102 0-46.126126-3.075075-67.651652-21.525526-92.252252l-3.075075-6.150151z m273.681682 212.180181c-18.45045 15.375375-43.051051 24.600601-70.726727 24.6006h-79.951952V4.228228h36.900901v107.627628h36.900901c27.675676 0 55.351351 9.225225 76.876877 24.6006 18.45045 18.45045 27.675676 36.900901 27.675676 64.576577 0 24.600601-9.225225 49.201201-27.675676 61.501502z m-27.675676-107.627628c-9.225225-9.225225-27.675676-15.375375-52.276276-15.375375h-33.825826v113.777777h36.900901c43.051051 0 64.576577-18.45045 64.576577-55.351351 3.075075-18.45045-6.15015-33.825826-15.375376-43.051051z"  horiz-adv-x="1024" />

    
    <glyph glyph-name="weituo" unicode="&#58889;" d="M750.01819072 183.46215725000002c-7.68511032-11.19350258-16.21803967-21.06944856-26.66683634-29.37896614-18.89261591-15.01696272-40.34523794-24.98265531-62.96647539-32.73205221-19.25860386-6.597967-38.92966023-11.64350862-59.10546168-14.54977114-11.74853125-1.69054604-23.49324349-3.47529422-35.29396783-4.72028973-10.17319183-1.0756863-20.41512577-1.69754755-30.64114717-2.07244651-13.03362631-0.47928508-26.09525866-0.93756564-39.12570245-0.60340274-12.37612102 0.3195234-24.74014851 1.50214182-37.08126199 2.63002119-9.58888414 0.87837108-19.22359632 1.75610563-28.67372327 3.51539376-15.95452836 2.9705491-31.87086666 6.2644406-47.63380828 10.11399727-17.93595526 4.38103482-35.15775665 10.99746035-51.64821866 19.2827909-13.5205494 6.78891724-26.16781973 14.94503812-37.28175971 25.39447129-15.66683001 14.72735486-26.2951199 32.70531917-35.01199799 52.0867677-7.71629886 17.15751482-13.63130053 34.90824833-17.82584062 53.185368A591.98263508 591.98263508 0 0 0 233.08536167 307.08524669999997c-1.92605134 12.40540004-3.03101668 24.94955726-4.18435608 37.46188944-0.76189142 8.26941803-1.11133035 16.5776626-1.39393669 24.88017869-0.36471495 10.73267602-0.84400002 21.48062805-0.60212972 32.20821207 0.30106486 13.42571078 0.826178 26.87942762 2.0749925 40.24212482 2.53645558 27.1270264 6.61960803 42.40368144 13.70513463 68.7630879 4.54270602 16.90546051 10.19546936 33.42902055 17.55469131 49.37209188 6.15177997 13.32705317 13.47599434 25.92594945 22.62760244 37.36641433 9.46412998 11.83445886 21.22284524 21.1878377 34.10880337 29.05880625 16.79343637 10.25720993 34.84841728 17.77746656 53.58254449 23.66828121 18.00215134 5.66167437 36.29582003 10.18655836 55.00639674 12.8592251 10.30622051 1.47158979 20.61626001 2.98073312 30.96958156 4.04687191 9.7282778 1.00185222 19.50302016 1.75992463 29.27458002 2.05271499 16.01881492 0.48374059 32.06690891 1.00885373 48.0749033 0.56521269 13.37733673-0.36853395 26.7209389-2.02279945 40.06899661-3.23724293C596.73734779 664.31875904 619.11162293 659.85943462 641.16000967 653.91451742c15.05515276-4.05960193 29.78187112-9.18470615 43.98029386-15.73175309 12.07060064-5.56110725 23.62690866-11.96112251 34.31184712-19.91229016 14.70507733-10.95099577 26.2951199-24.52119224 35.4486375-40.38342798 10.01024765-17.34146354 17.75009703-35.63576873 23.09734001-54.83963352 4.2849232-15.38931566 7.75894441-19.39035952 10.95163229-35.05146102 2.38560489-11.71861572 3.92720977-23.62245316 5.48727316-35.49064654 0.87391556-6.63361105 1.26154453-13.3563322 1.44485673-20.04977433 0.58176171-20.66718008 1.37611466-41.34072515 1.26790955-62.00790523-0.06619607-12.35320699-1.66381302-24.69622995-2.5631886-37.04243542-0.05155657-0.68360182-0.02800604-1.37484167-0.03437105-2.06226251-0.04964706-5.4420816-0.07192459-5.54392173-5.09391568-4.43131836-22.55886036 5.00098657-44.54423353 12.00185855-65.58631256 21.40997645-23.90760551 10.69130347-47.33974492 22.45447424-70.9093685 33.89239312-8.46800627 4.10924899-17.34846503 7.1797287-26.66047134 6.96077244-8.41199421-0.19413274-16.89909549-1.7338281-25.14496301-3.60450387-20.25600057-4.59553558-40.30068289-10.13818431-60.59932901-14.5128541-20.74228717-4.47141792-41.66725003-8.12747836-62.55975138-11.88919791-8.34006961-1.49959582-16.79343637-2.39833492-25.2143416-3.42946617-3.8699247-0.47164707-5.89972565-2.98073312-6.55468494-8.36934865-2.23093521-18.35031726 11.10948448-35.27296328 27.33516215-40.32105091 5.53119171-1.7230076 11.61613909-2.05653399 17.4738557-2.25703173 10.08344524-0.34943892 20.20444401-0.44109502 30.28088773-0.01082053 12.15079973 0.52384014 24.27486644 1.65744802 36.40084266 2.62238318 7.69656733 0.61358675 15.38104115 1.37929718 23.07060699 2.11254607 4.40203933 0.4188175 8.80280569 0.85291104 13.190842 1.37866068 8.18858243 0.9821207 8.8982808-4.18753858 7.24974379-10.44816018-1.9776079-7.51643763-7.2612008-12.66827486-13.40343326-16.93410305-13.91708939-9.66717372-29.65584397-15.43259772-45.61673734-20.54560842-9.33301082-2.99155364-18.75449525-6.30135765-28.38538843-7.5928177-10.40678764-1.3958462-21.12482412-1.09605432-31.66845941-0.62377077-8.09438032 0.36407844-16.12192805 2.17046764-24.18702934 3.28561699-10.90580423 1.50850682-20.73719515 5.65403636-30.37190734 10.94654029-12.21317682 6.70999114-24.73760252 12.96743023-37.52935852 18.49162042-16.26386773 7.02060351-32.82880032 13.39452224-49.46693051 19.48965364-8.67614202 3.18059436-17.71699899 5.59420529-27.14866742 5.41980408-17.68262795-0.3195234-26.33585595-12.29082991-25.49822095-28.01112597 0.05983108-1.13297137 1.37356867-2.50908605 2.46644049-3.22133041 18.69466417-12.16925826 37.33395278-24.43144564 56.21638471-36.30855005 19.26369587-12.1145192 38.85200713-23.71347277 58.15389305-35.76879739 9.02430795-5.63557784 17.6450744-11.91847695 26.57772622-17.70745148 13.95464293-9.04467597 27.91692387-18.08807895 44.08277048-22.94903534 9.08350252-2.73313432 18.29685119-3.7082535 27.59612747-1.95723986 27.2804231 5.13974373 54.52774814 10.46407269 81.77316371 15.77885413 16.06527949 3.13794879 32.0618169 6.63679356 48.17356092 9.52396105 12.57089026 2.25257623 25.3002692 3.61214189 37.89916548 5.73105294 12.60271529 2.12082056 24.61603086-0.92929113 36.66308097-3.59368335 13.43016629-2.97500461 26.77185897-6.33827468 40.1472862-9.55324008 0.70842536-0.16867271 1.37738767-0.52065763 2.3136803-0.88473608zM466.22159148 483.37686555c-35.863636 0-71.7291815 0.03246154-107.59218102-0.06046758-2.89926102-0.00636501-5.88699565-0.52702264-8.67614202-1.38884467-16.13529457-4.98252804-21.845343-24.34424503-16.03218145-39.53497247 4.66682365-12.1959913 14.02465802-17.18106534 25.8839404-17.19315884 65.75052976-0.07001509 131.50360552-0.05601207 197.25604477 0a292.00873221 292.00873221 0 0 1 21.02998551 0.78098643c6.44775282 0.47228358 11.56776503 4.03223239 15.60381643 9.22035019 5.34278749 6.86720683 6.76663971 14.85911053 5.7749715 23.60908662-0.83699852 7.37704396-3.82664265 13.46326433-9.01412393 18.24147564-5.13656123 4.72856423-11.3717228 6.34273019-18.07407593 6.33954769-35.38689694-0.02227753-70.77252085-0.01400303-106.16005427-0.01400302z m-0.36344195 93.20217155c-35.52056209 0-71.04112418 0.02100453-106.56168626-0.04200905-2.70258228-0.0044555-5.48536366-0.27051282-8.09247082-0.9903952-17.40256761-4.79412382-23.14316807-24.4817292-17.24216941-40.0728156 4.59744507-12.15079973 13.93618441-17.04230817 25.62361157-17.05822071 67.81279226-0.10247663 135.62367502-0.06555957 203.43646729-0.01973151 4.8628659 0.0031825 9.74100782 0.28069685 14.58796119 0.73834089 8.4024467 0.79244347 14.55231715 5.56747225 18.64947262 13.1825675 3.24615394 6.03148131 4.11052198 12.62562932 3.2143289 19.58894776-0.99548721 7.72202736-3.99658834 14.01892951-9.83584643 18.87224789-5.11746621 4.25373466-10.98663982 5.75014798-17.21798239 5.76351449-35.51992558 0.07638009-71.04176066 0.03755354-106.56168626 0.03755354z"  horiz-adv-x="1024" />

    
    <glyph glyph-name="duihua1" unicode="&#58882;" d="M663.50564228 557.56357655h-412.19026199c-23.93879404 0-43.38707513-19.42854957-43.38707513-43.38771164v-260.30781126c0-23.98398561 19.44955409-43.38771164 43.38707513-43.38771163h43.38962112v-108.51256113l108.47182508 108.51256113h260.3307253c23.9808031 0 43.38707513 19.40436254 43.38707512 43.38771163v260.30781126c-0.00063651 23.96043506-19.40754505 43.38771164-43.38771164 43.38771163v0zM663.50564228 253.86741715000005h-278.29595958l-47.11760615-47.11760616v47.11760616h-86.77796928v260.30781125h412.19026201v-260.30781125zM348.94059571 351.44935051000004c18.00724335 0 32.53982898 14.61596723 32.53982896 32.58183803 0 17.94422977-14.53194912 32.51946096-32.53982896 32.51946095-18.00787985 0-32.54237497-14.57523118-32.54237498-32.51946095 0-17.96587079 14.53449514-32.58183803 32.54237498-32.58183803v0zM457.41114778 351.44935051000004c18.00660684 0 32.53982898 14.61596723 32.53982896 32.58183803 0 17.94422977-14.53194912 32.51946096-32.53982896 32.51946095-18.00851634 0-32.54173847-14.57523118-32.54173846-32.51946095-0.00063651-17.96587079 14.53194912-32.58183803 32.54173846-32.58183803v0zM565.87979035 351.44935051000004c17.96587079 0 32.54237497 14.61596723 32.54237499 32.58183803 0 17.94422977-14.57586768 32.51946096-32.54237499 32.51946095-17.96396129 0-32.53919247-14.57523118-32.53919247-32.51946095 0-17.96587079 14.57459468-32.58183803 32.53919247-32.58183803v0zM771.97619436 666.03476512h-412.1896255c-23.94070354 0-43.38962114-19.42791307-43.38962114-43.38707514v-43.38962113h43.38962114v43.38962113h412.1896255v-260.31035725h-43.38962114v-43.38707514h43.38962114c23.98143959 0 43.38707513 19.40690854 43.38707513 43.38707514v260.31035725c0 23.96043506-19.40627204 43.38707513-43.38707513 43.38707514v0zM771.97619436 666.03476512z"  horiz-adv-x="1024" />

    
    <glyph glyph-name="shezhi" unicode="&#58897;" d="M788.03765484 429.98081577h-27.64959355a33.26353035 33.26353035 0 0 0-29.78823613 21.9210866l-15.84886922 38.53375672a32.95800998 32.95800998 0 0 0 5.42298658 36.54787435l19.59149376 19.55330372a23.02859793 23.02859793 0 0 1 0 32.53791947l-32.61429956 32.53791946a22.99040789 22.99040789 0 0 1-32.49972942 0l-19.62968382-19.51511367a32.88162989 32.88162989 0 0 0-36.54787432-5.42298657L579.97828245 602.52344508a33.26353035 33.26353035 0 0 0-21.92108658 29.78823613V659.92308471a23.10497803 23.10497803 0 0 1-23.02859794 23.02859792H489.04778216a23.06678798 23.06678798 0 0 1-23.02859793-23.02859792v-27.6114035a33.2253403 33.2253403 0 0 0-21.99746668-29.86461623l-38.45737665-15.77248913a32.91981994 32.91981994 0 0 0-36.5096843 5.38479652l-19.59149376 19.55330372a23.06678798 23.06678798 0 0 1-32.49972943 0l-32.53791947-32.49972942a23.02859793 23.02859793 0 0 1 0-32.53791947l19.51511369-19.59149376a32.91981994 32.91981994 0 0 0 5.46117661-36.50968428l-15.88705926-38.57194679a33.3781005 33.3781005 0 0 0-29.82642619-21.9210866H236.11510535a23.10497803 23.10497803 0 0 1-23.06678798-23.02859794v-45.98081575c0-12.67909538 10.34950255-22.99040789 23.02859792-22.99040789h27.6114035c12.64090535-0.03819005 26.0456116-9.92941206 29.78823613-21.95927664l15.92524933-38.53375675c5.91945718-11.15149353 3.51348426-27.68778358-5.46117663-36.54787432l-19.55330371-19.55330373a23.10497803 23.10497803 0 0 1 0-32.53791947l32.57610951-32.57610952a23.06678798 23.06678798 0 0 1 32.49972942 0l19.62968381 19.55330372a32.76705974 32.76705974 0 0 0 36.43330419 5.38479653l38.57194679-15.81067917c12.14443474-3.81900464 21.99746668-17.18552085 21.99746668-29.78823613v-27.53502342c0-12.64090535 10.34950255-23.02859793 23.02859795-23.02859792h45.98081577a23.14316807 23.14316807 0 0 1 23.02859793 23.02859792v27.53502342c0 12.60271529 9.89122199 26.00742155 21.92108659 29.78823613l38.57194679 15.81067917a32.88162989 32.88162989 0 0 0 36.54787433-5.38479653l19.51511368-19.55330372a23.10497803 23.10497803 0 0 1 32.53791947 0l32.57610952 32.57610952a23.10497803 23.10497803 0 0 1 0 32.53791947l-19.62968382 19.55330373c-8.8982808 8.86009074-11.30425371 25.39638082-5.38479653 36.54787432l15.81067917 38.53375675c3.81900464 12.02986459 17.22371089 21.9210866 29.78823613 21.92108658h27.64959355c12.60271529 0 22.99040789 10.34950255 22.99040789 23.02859795V406.99040789a23.10497803 23.10497803 0 0 1-22.99040789 22.99040788zM512 231.23981469a152.76018531 152.76018531 0 1 0 0 305.52037062 152.76018531 152.76018531 0 0 0 0-305.52037062zM512 384m-76.38009265 0a76.38009265 76.38009265 0 1 1 152.7601853 0 76.38009265 76.38009265 0 1 1-152.7601853 0Z"  horiz-adv-x="1024" />

    
    <glyph glyph-name="shenhe3" unicode="&#58880;" d="M476.47943791 523.71064647l58.95715701 5.51273319c3.1233093-9.3145523 6.62597303-20.34001867 10.50990076-33.10376865h126.00614835v-64.08926275h-47.90432111v26.17864026h-223.41686301v-26.20600978h-47.90432111v64.1433653h133.93631147M375.8098393 239.29982397000003v184.12121485h111.34180707v26.88515611h49.69670726v-26.88515611h111.34180707v-184.12121485h-46.89928638v16.56556911h-64.46925372v-68.27170932h-49.64260471v68.27170932h-64.46925371v-16.5655691M601.29087432 386.86870898h-64.46925371v-29.65520747h64.46925371M422.70912568 357.21413801000006h64.46925371v29.65520746h-64.46925371M422.70912568 292.39098987h64.46925371v29.65520748h-64.46925371M536.82098411 292.39098987h64.46925371v29.65520748h-64.46925371M524.95342722 60.881656059999955c-3.47402122-1.7338281-7.56735769-2.74841034-11.89810894-2.74841035-0.18967722 0-0.37935445 0.00190949-0.56775868 0.00572852-0.13239217-0.00381901-0.32206939-0.0057285-0.51174663-0.00572852-4.33075127 0-8.42408772 1.01458223-12.05596112 2.81906192-15.59299591 4.89850994-30.28470673 9.97714961-44.27053821 15.29956906-138.4981125 52.79264704-212.17434988 136.65162377-215.21555056 283.13400195v106.07349017c0 0.001273 0 0.002546 0 0.00445551 0 14.99786768 12.15843774 27.15630545 27.15630543 27.15630544 14.99786768 0 27.15630545-12.15843774 27.15630547-27.15630544 0-0.001273 0-0.0031825 0-0.00445551v-105.50318548c2.49826552-121.17256149 60.69480413-187.38009879 180.26529315-232.9758316 11.78608479-4.48096543 24.19657686-8.82571971 37.50326199-13.06226884 13.30668514 4.23654913 25.7171772 8.58130341 37.50326201 13.06226884 119.57048904 45.62310234 177.76639114 111.80327013 180.26529315 232.40552691v106.07349016c0 14.99786768 12.15843774 27.15630545 27.15630544 27.15630546s27.15630545-12.15843774 27.15630544-27.15630546v-106.61642532c-3.04183719-145.93944303-76.74417109-229.79905626-215.21555055-282.61843631-13.98583147-5.32241946-28.67754228-10.40105911-44.4283904-15.37085715zM511.45706485 626.76966898c44.94395602-43.07009774 130.07975328-66.26163987 244.95223013-66.26163986 14.9965947 0.002546 27.15248644 12.15971076 27.15248643 27.15630543 0 14.9965947-12.15589175 27.15439594-27.15184992 27.15630543-110.25593675 0-185.20772167 22.92039279-213.6682172 58.00622488-2.90689903 3.54849181-5.00798807 7.86905905-5.95892022 12.60526128 2.32004531-5.38161403 2.37414788-4.05069091 2.37414786-2.7204043 0 0.0057285 0 0.01273001 0 0.01973154 0 14.99786768-12.15843774 27.15630545-27.15630542 27.15630542-0.36280544 0-0.72433788-0.0070015-1.08332432-0.02100451-14.94631112 0.00190949-27.10411237-12.15652825-27.10411239-27.15503245 0 0 0 0 0 0 0-1.35765614 0.05410257-2.66120973 0.13557467-3.99213284-2.12145707-4.40585835-5.16265776-8.06764729-8.89637129-10.85361116-23.28510774-30.12558154-98.2642622-53.04533784-208.49282941-53.04533786-0.001273 0-0.002546 0-0.00445549 0-14.99786768 0-27.15630545-12.15843774-27.15630545-27.15630543 0-14.99786768 12.15843774-27.15630545 27.15630545-27.15630543 0.001273 0 0.0031825 0 0.00445549 0 114.87184034 0 200.00763762 23.19154212 244.9248606 66.26291286z"  horiz-adv-x="1024" />

    
    <glyph glyph-name="fangda" unicode="&#58904;" d="M740.46134381 688.6377562h-456.92268761c-42.02602432 0-76.1764124-34.1503881-76.17641239-76.1764124v-197.02669233h0.20368024c0-0.33946708-0.20368026-0.61104074-0.20368024-0.95050783 0-16.8375671 13.64657656-30.48414365 30.48414362-30.48414364 16.8375671 0 30.48414365 13.64657656 30.48414367 30.48414365 0 0.33946708-0.20368026 0.61104074-0.20368026 0.95050782h0.20368026V612.46134381c0 10.59137286 5.90672718 16.15863293 15.2081251 16.15863292h456.92268761c13.23921607 0 15.20812511-6.38198108 15.2081251-16.15863293v-456.92268761c0-7.26459548-3.53045762-16.15863293-15.2081251-16.15863292H547.16878932c-1.62944197 0.27157366-3.05520371 0.95050781-4.68464568 0.95050782-16.8375671 0-30.48414365-13.64657656-30.48414364-30.48414366 0-16.8375671 13.64657656-30.48414365 30.48414365-30.48414363h197.97720015c41.95813089 0 76.1764124 34.1503881 76.1764124 76.17641239v456.92268761c0 42.02602432-34.2182815 76.1764124-76.17641239 76.17641239zM397.73538139 354.46636418H283.53865619c-42.02602432 0-76.1764124-42.70495847-76.17641238-84.73098278v-114.26461861c0-42.02602432 34.1503881-76.1764124 76.17641239-76.17641241h114.2646186c41.95813089 0 83.78047496 34.1503881 83.78047497 76.1764124V269.73538139000004c-0.06789342 42.02602432-41.82234406 84.73098278-83.84836838 84.73098279z m22.88008109-198.92770798c0-20.97906546-1.83312222-15.20812511-22.88008108-15.20812511H283.53865619c-20.97906546 0-15.20812511-5.77094033-15.20812509 15.2081251V269.73538139000004c0 20.97906546-5.77094033 24.78109673 15.2081251 24.78109673h114.2646186c20.97906546 0 22.88008109-3.73413788 22.8800811-24.78109672v-114.19672521zM626.73987252 390.5177679h0.20368024c0-0.33946708-0.20368026-0.61104074-0.20368024-0.88261441 0-16.0228461 14.52919096-29.05838191 32.45305269-29.05838191s32.45305269 13.03553581 32.4530527 29.05838191c0 3.19099055-0.95050781 6.11040741-2.03680247 8.96193088V542.12376515c0 10.04822553-11.13452018 21.79378644-22.33693376 21.79378642H496.92766171c-17.92386174 0-32.45305269-13.03553581-32.45305269-29.05838192 0-16.0228461 14.52919096-29.05838191 32.45305269-29.05838191 4.82043252 0 9.23350453 1.08629466 13.3750029 2.71573664h68.02920251L460.60468432 403.14594322c-12.69606874-11.33820042-12.69606874-29.73731607 0-41.0755165 12.69606874-11.33820042 33.19988027-11.33820042 45.89594901 0L626.73987252 469.74938402v-79.23161612z"  horiz-adv-x="1024" />

    
    <glyph glyph-name="suoxiao3" unicode="&#58906;" d="M786.3572928 384c-16.8375671 0-30.48414365-13.64657655-30.48414364-30.48414365 0-0.33946708 0.20368026-0.61104074 0.20368024-0.95050782h-0.20368024v-197.23037257c0-10.59137286-5.90672718-16.15863293-15.20812512-16.15863294H283.33497596c-13.23921607 0-15.20812511 6.38198108-15.20812512 16.15863294V612.5971306199999c0 7.26459548 3.53045762 16.15863293 15.20812512 16.15863293h193.4283413c1.62944197-0.27157366 3.05520371-0.95050781 4.68464568-0.95050782 16.8375671 0 30.48414365 13.64657655 30.48414365 30.48414365 0 16.8375671-13.64657655 30.48414365-30.48414365 30.48414366H283.33497596C241.37684506 688.84143644 207.15856356 654.69104835 207.15856356 612.5971306199999v-457.26215466C207.15856356 113.30895165000004 241.37684506 79.15856355999995 283.33497596 79.15856355999995h457.26215466c42.02602432 0 76.17641239 34.1503881 76.17641242 76.1764124V352.56534853000005h-0.20368025c0 0.33946708 0.20368026 0.61104074 0.20368025 0.95050782 0.06789342 16.8375671-13.57868314 30.48414365-30.41625024 30.48414365zM740.66502404 688.84143644H626.33251202c-42.02602432 0-83.84836837-34.1503881-83.84836838-76.1764124v-114.33251202c0-42.02602432 41.82234406-84.79887621 83.84836838-84.7988762h114.33251202c42.02602432 0 76.17641239 42.77285189 76.1764124 84.7988762V612.5971306199999c0 42.09391773-34.1503881 76.24430583-76.1764124 76.24430582z m0-215.29002115H626.33251202c-20.97906546 0-22.88008109 3.73413788-22.88008109 24.78109673V612.5971306199999c0 20.97906546 1.83312222 15.20812511 22.88008109 15.20812511h114.33251202c21.04695886 0 15.20812511 5.77094033 15.20812512-15.20812511v-114.33251201c0-20.97906546 5.77094033-24.7132033-15.20812512-24.71320332zM397.19223406 377.48223210000003h-0.20368024c0 0.33946708 0.20368026 0.61104074 0.20368025 0.88261441 0 16.0228461-14.52919095 29.05838191-32.45305269 29.05838191s-32.45305269-13.03553581-32.45305271-29.05838191c0-3.19099055 0.95050781-6.11040741 2.03680247-9.0298243v-143.6624676c0-10.04822553 11.13452018-21.79378644 22.33693377-21.79378644h170.48036679c17.92386174 0 32.45305269 13.03553581 32.45305269 29.05838192 0 16.09073952-14.52919095 29.05838191-32.4530527 29.05838192-4.82043252 0-9.23350453-1.08629466-13.37500288-2.71573663H445.66813287l117.86296965 105.50636797c12.69606874 11.33820042 12.69606874 29.73731607-1e-8 41.14340993-12.69606874 11.33820042-33.26777369 11.33820042-45.89594902 0L397.19223406 298.18272256V377.48223210000003z"  horiz-adv-x="1024" />

    
    <glyph glyph-name="xinwen" unicode="&#58916;" d="M934.724 725.67c9.826 0 18.01-8.186 18.01-18.012v-644.664c0-9.824-8.184-18.01-18.01-18.01H89.742c-9.826 0-18.012 8.186-18.012 18.01V707.658c0 9.826 8.186 18.012 18.012 18.012h844.982z m0 60.044H89.742c-43.126 0-78.056-34.93-78.056-78.056v-644.664c0-43.126 34.93-78.058 78.056-78.058h843.888c43.126 0 78.056 34.934 78.056 78.058V707.658c0 43.126-34.392 78.056-76.962 78.056M837.038 553.3c-2.226 2.786-7.24 6.128-13.37 8.356-3.898 1.114-14.484 3.9-29.528 8.358-19.5 5.012-33.426 11.142-41.782 18.382-11.142 10.026-17.27 22.286-17.27 36.77 0 8.914 2.786 18.384 8.356 26.742 5.012 8.358 13.372 14.486 22.286 18.386 10.026 3.898 22.284 6.126 35.654 6.126 23.398 0 40.67-5.012 51.81-15.042 11.142-10.028 17.27-23.396 18.386-39.552l-36.772-2.23c-2.228 8.914-5.014 16.158-10.028 20.614-5.014 3.902-13.37 6.128-23.398 6.128-11.142 0-19.502-2.228-25.628-6.128-3.9-2.784-6.126-6.128-6.126-11.144 0-3.898 2.226-8.356 5.012-11.142 5.016-3.898 16.156-8.358 33.43-12.254 18.384-3.9 31.752-8.358 39.554-13.372 8.356-3.9 15.042-11.142 20.614-18.384 5.012-8.356 7.242-17.27 7.242-29.528 0-10.028-2.786-20.614-8.914-29.528s-14.484-16.156-24.512-20.612c-10.03-3.9-23.4-7.242-39.554-7.242-23.4 0-40.672 5.012-52.928 16.156-12.256 10.028-19.5 26.74-22.286 46.798l35.656 2.786c2.228-12.258 6.126-20.614 13.372-26.744 6.126-6.126 15.04-8.354 26.742-8.354 12.254 0 20.612 2.228 26.74 7.244 6.128 5.012 8.914 11.142 8.914 17.27 2.786 5.01 1.67 7.798-1.672 11.14zM142.322 671.41h35.656l74.652-121.45v121.45h34.542v-182.734h-36.768l-74.654 119.778v-119.778H142.322v182.734z m-7.244-259.06h329.812v-286.916H135.078V412.35z m330.926 76.326h-139.834v182.734h136.492v-30.642h-99.168v-40.668h91.924v-30.64h-91.924v-50.138h102.51v-30.646z m12.814 182.734h37.882l28.414-125.35 32.868 125.35h44.016l32.312-127.58 28.968 127.58h36.768l-45.124-182.734h-39l-36.21 137.05-36.212-137.05h-40.67l-44.012 182.734z m66.296-487.48h340.954v-57.942H545.114v57.942z m0 114.212h340.954v-57.94H545.114v57.94z m0 114.208h340.954v-57.938H545.114v57.938z"  horiz-adv-x="1024" />

    
    <glyph glyph-name="xuanze" unicode="&#58908;" d="M508.23171174 689.21301711C343.43157969 689.21301711 206.78698289 552.56842031 206.78698289 380.23171174000004c0-164.80013207 136.64459679-301.44533991 301.4453399-301.44533989 172.33670857 0 308.98130536 136.64459679 308.98130536 301.4453399C817.21301711 552.56842031 680.56842031 689.21301711 508.23171174 689.21301711zM512 135.62415952000003C374.82624193 135.62415952000003 263.62415952 246.82563087999995 263.62415952 384S374.82624193 632.3758404800001 512 632.3758404800001 760.37584048 521.1743691199999 760.37584048 384 649.17436912 135.62415952000003 512 135.62415952000003z"  horiz-adv-x="1024" />

    
    <glyph glyph-name="lishi" unicode="&#58950;" d="M512 78.47962940000002C343.26563439 78.47962940000002 206.4796294 215.26563438999995 206.4796294 384S343.26563439 689.5203706 512 689.5203706s305.5203706-136.78600498 305.5203706-305.5203706-136.78600498-305.5203706-305.5203706-305.5203706z m0 67.89354828c131.23770731 0 237.62682232 106.38911498 237.62682232 237.62682232S643.23770731 621.62682232 512 621.62682232 274.37317768 515.23770731 274.37317768 384 380.76229269 146.37317768000003 512 146.37317768000003zM512 519.7870966c0 18.74773243-15.198445 33.94617743-33.94677415 33.94617742-18.74832915 0-33.94677415-15.198445-33.94677414-33.94617742V366.76674158000003c0-18.74892587 15.198445-33.94737086 33.94737086-33.94737085h169.94809304c18.74832915 0 33.94677415 15.198445 33.94677413 33.94737085 0 18.74773243-15.198445 33.94617743-33.94737086 33.94617745H512V519.7870966z"  horiz-adv-x="1024" />

    
    <glyph glyph-name="hangxian" unicode="&#58993;" d="M375.96694183 120.58561706c-11.58714294 31.36253357-18.15319062 61.10286713-31.36253356 87.52155305-29.74033357 51.21517182-62.72506714 100.73089599-94.16484833 150.32386779-19.85263825 31.36253357-38.00582886 62.72506714-34.68418122 102.43034364 4.94384766 59.48066711 49.51572419 117.26188659 107.37419129 135.4150772 61.10286713 19.85263825 128.84902954 1.62220001 168.47705841-44.57187653 47.89352417-56.15901948 52.83737182-115.63968659 16.5309906-178.36475372-14.83154297-24.79648591-31.36253357-49.51572419-47.89352417-72.69001008-34.76142883-57.85846711-66.1239624-115.63968659-84.27715303-180.06420135z m52.83737183 325.36697388c0 31.36253357-24.79648591 56.15901948-56.15901947 54.53681946-31.36253357 0-56.15901948-24.79648591-54.53681946-56.15901947 0-31.36253357 24.79648591-54.53681946 56.15901947-54.53681946 29.81758117 0 54.53681946 24.79648591 54.53681946 56.15901947zM731.07424927 407.94676208c-4.94384766 14.83154297-8.26549531 29.74033357-16.5309906 42.94967652-14.83154297 24.79648591-31.36253357 49.51572419-46.27132417 74.31221008-9.88769531 14.83154297-18.15319062 31.36253357-16.5309906 51.21517182 1.62220001 29.74033357 24.79648591 57.78121948 52.83737183 67.74616241 29.74033357 9.88769531 64.42451477 1.62220001 84.1999054-21.47483825 23.09703828-28.04088593 26.41868591-57.78121948 8.2654953-89.14375305-6.64329529-13.20934297-14.83154297-24.79648591-23.09703827-36.30638124-18.15319062-26.49593354-32.98473359-56.23626709-42.87242889-89.29824829z m28.04088592 161.91101075c0 14.83154297-11.58714294 28.04088593-28.04088592 28.04088593-14.83154297 0-28.04088593-13.20934297-28.04088594-28.04088593s11.58714294-28.04088593 28.04088594-28.04088593c14.83154297-0.07724763 28.04088593 13.13209534 28.04088592 28.04088593zM412.27332305 120.58561706c8.26549531 31.36253357 18.15319062 61.10286713 26.41868592 92.46540071 3.32164765 11.58714294 8.26549531 11.58714294 18.15319061 11.58714293 51.21517182 0 102.43034363-1.62220001 155.26771545 0 9.88769531 0 19.85263825 3.32164765 29.74033357 6.64329529 24.79648591 9.88769531 28.04088593 31.36253357 8.2654953 49.51572419-9.88769531 8.26549531-21.47483826 14.83154297-31.36253357 21.47483825-14.83154297 11.58714294-34.68418122 21.47483826-31.36253358 42.94967652 3.32164765 23.09703828 21.47483826 36.30638123 42.94967653 39.62802887 28.04088593 6.64329529 59.48066711 8.26549531 87.52155303 11.58714295 0-1.62220001 0-4.94384766 1.62220002-6.64329529-14.83154297-1.62220001-31.36253357-3.32164765-46.27132417-6.6432953-11.58714294-1.62220001-23.09703828-4.94384766-33.0619812-9.88769531-18.15319062-8.26549531-19.85263825-24.79648591-3.32164764-36.30638122 9.88769531-8.26549531 23.09703828-13.20934297 33.0619812-19.85263825 19.85263825-11.58714294 41.25022888-23.09703828 59.48066712-38.00582885 33.0619812-28.04088593 33.0619812-69.36836243 3.32164764-100.73089601-31.36253357-33.0619812-72.69001008-51.21517182-117.2618866-52.83737182-64.42451477-4.94384766-128.84902954-4.94384766-193.19629669-6.64329529-4.94384766 1.69944763-6.64329529 1.69944763-9.96494293 1.69944763z"  horiz-adv-x="1024" />

    
    <glyph glyph-name="dengji" unicode="&#58952;" d="M513.518 583.965c-155.081 0-280.798-125.716-280.798-280.799 0-155.076 125.717-280.797 280.798-280.797s280.799 125.72 280.799 280.797c0 155.084-125.72 280.8-280.8 280.8M657.904 328.21l-55.368-53.968 13.072-76.202c4.39-25.58-10.222-36.77-33.653-24.453l-68.434 35.98-68.436-35.98c-22.973-12.076-38.126-1.638-33.65 24.453l13.067 76.202-55.365 53.968c-18.585 18.118-13.338 35.756 12.855 39.558l76.51 11.123 34.22 69.33c11.485 23.278 29.882 23.735 41.596 0l34.22-69.33 76.511-11.123c25.684-3.729 31.807-21.084 12.855-39.558m0 0z m118.107 417.627h-173.62c-9.365 0-16.879-6.562-19.085-15.245l-53.52-105.528s114.598-6.897 182.289-72.08l79.936 161.31c2.371 3.292 4.056 7.118 4.056 11.485-0.001 11.08-8.98 20.059-20.06 20.059l0.004-0.001m0 0zM494.417 625.063l-53.522 105.529c-2.206 8.681-9.717 15.244-19.082 15.244h-173.62c-11.079 0-20.058-8.98-20.058-20.058 0-4.367 1.688-8.195 4.055-11.49l79.94-161.304c67.689 65.182 182.287 72.08 182.287 72.08m0 0z"  horiz-adv-x="1024" />

    
    <glyph glyph-name="bi" unicode="&#58949;" d="M709.24288253 434.97591331l-146.2646778 146.30286727 55.22159921 55.29797754 146.26467783-146.37924557-55.22159924-55.22159924z m-302.72587482-302.95501032l-146.45562388 146.45562386 0.19094607-0.0763783 265.22406982 265.37682704 146.30286725-146.34105672-265.30044871-265.41501587h0.03818945z m-146.99027319-0.76378422v72.7504468l72.6740685-72.63587905-72.63587905-0.15275661h-0.03818945z m542.63049829 396.40400992L655.7397984 674.00218481A50.48613672 50.48613672 0 0 1 618.16161449 689.50700409c-14.05362974-0.07637829-27.49623186-5.69019219-37.38723724-15.65757648L222.75052487 315.94014300000003c-11.80046594-11.83865539-17.29971267-28.52734043-14.89379224-45.06326888-0.61102762-2.21497434-1.37481183-4.39175925-1.37481182-6.83586852v-132.78388683C206.48192081 102.15694015999998 230.15923157 78.47962940000002 259.25941017 78.47962940000002H392.08148586c2.36773096 0 4.58270531 0.76378422 6.75949021 1.33662239 2.48229871-0.34370266 4.96459741-0.68740592 7.44689615-0.68740592 13.59535932 0 27.22890751 5.19373293 37.61637273 15.61938762L801.92809792 452.7338964c20.6985522 20.6221739 20.7749305 54.1523012 0.19094604 74.88904284h0.03818885z"  horiz-adv-x="1024" />

    
    <glyph glyph-name="chengshi" unicode="&#58888;" d="M770.35418105 451.95859337H674.99271882c-14.84023332 0-27.07553208-12.15780973-27.07553208-27.15736628v-367.00609624h149.5125264V424.8012271c0 15.00390172-12.12159991 27.15809047-27.07553209 27.15809047z m-27.2935152-326.20414496h-40.77515603v40.77732861h40.77515603v-40.7773286z m0 95.14420331h-40.77515603v40.77660441h40.77515603v-40.77660441z m0 108.73374939h-40.77515603v40.77732861h40.77515603v-40.77732861z m0 0M607.17824053 343.22484397000005h-68.031013c-14.97203707 0-27.14795172-12.17591465-27.14795173-27.19357609v-258.23613703h122.32619227V316.02981949c0.0007242 14.94089663-12.15346456 27.19502449-27.14722754 27.19502448zM593.55176043 125.75444842000002h-40.77732861v40.7773286h40.77732861v-40.7773286z m0 95.1442033h-40.77732861v40.77660441h40.77732861v-40.77660441z m0 0M471.35085417 560.69306695h-13.71990146V601.3892855700001c0 15.21319449-12.2041583 27.26454734-27.26092636 27.26454734h-47.49207795V689.72893918c0 11.28298044-9.12922025 20.47665417-20.38975059 20.47665417-11.33657098 0-20.3868538-9.16543007-20.38685381-20.47665417v-61.07510628h-47.49207795c-15.07052779 0-27.26020216-12.20777929-27.26020218-27.26454734v-40.69621861H253.62843824c-14.85109627 0-27.05815136-12.17519046-27.05815138-27.19647288v-475.70146322h271.83871867V533.49659407c0 15.1306361-12.11580634 27.19647289-27.05815136 27.19647288z m-136.04609371-434.93789434h-40.77805281V166.53105283000002h40.77805281v-40.77732861z m0 95.14347911h-40.77805281v40.77660441h40.77805281v-40.77660441z m0 108.73374939h-40.77805281v40.77732861h40.77805281v-40.77732861z m0 108.73519778h-40.77805281v40.77660442h40.77805281v-40.77660442zM430.44823957 125.75444842000002h-40.77443184v40.7773286h40.77443184v-40.7773286z m0 95.1442033h-40.77443184v40.77660441h40.77443184v-40.77660441z m0 108.73374939h-40.77443184v40.77732861h40.77443184v-40.77732861z m0 108.73519778h-40.77443184v40.77660442h40.77443184v-40.77660442z m0 0"  horiz-adv-x="1024" />

    
    <glyph glyph-name="icon-up" unicode="&#58885;" d="M216.4147644 516.28747558l298.29858399-298.29858398 297.39468383 297.39468384z"  horiz-adv-x="1024" />

    
    </font>
</defs>
</svg>
